<svg width="1255" height="392" viewBox="0 0 1255 392" fill="none" xmlns="http://www.w3.org/2000/svg">
<mask id="mask0" mask-type="alpha" maskUnits="userSpaceOnUse" x="0" y="0" width="392" height="392">
<mask id="mask1" maskUnits="userSpaceOnUse" x="0" y="0" width="392" height="392">
<circle cx="196" cy="196" r="196" fill="#C4C4C4"/>
</mask>
<g mask="url(#mask1)">
<ellipse cx="5.14558" cy="5.14559" rx="5.14558" ry="5.14559" fill="white"/>
<ellipse cx="16.3723" cy="5.14559" rx="5.14558" ry="5.14559" fill="white"/>
<ellipse cx="27.5991" cy="5.14559" rx="5.14559" ry="5.14559" fill="white"/>
<ellipse cx="38.8258" cy="5.14559" rx="5.14558" ry="5.14559" fill="white"/>
<ellipse cx="50.0525" cy="5.14559" rx="5.14559" ry="5.14559" fill="white"/>
<ellipse cx="61.2793" cy="5.14559" rx="5.14558" ry="5.14559" fill="white"/>
<ellipse cx="72.5059" cy="5.14559" rx="5.14558" ry="5.14559" fill="white"/>
<ellipse cx="83.7327" cy="5.14559" rx="5.14558" ry="5.14559" fill="white"/>
<ellipse cx="94.9594" cy="5.14559" rx="5.14558" ry="5.14559" fill="white"/>
<ellipse cx="106.186" cy="5.14559" rx="5.14558" ry="5.14559" fill="white"/>
<ellipse cx="117.413" cy="5.14559" rx="5.14558" ry="5.14559" fill="white"/>
<ellipse cx="128.64" cy="5.14559" rx="5.14559" ry="5.14559" fill="white"/>
<ellipse cx="139.866" cy="5.14559" rx="5.14558" ry="5.14559" fill="white"/>
<ellipse cx="151.093" cy="5.14559" rx="5.14558" ry="5.14559" fill="white"/>
<ellipse cx="162.32" cy="5.14559" rx="5.14558" ry="5.14559" fill="white"/>
<ellipse cx="173.547" cy="5.14559" rx="5.14558" ry="5.14559" fill="white"/>
<ellipse cx="184.773" cy="5.14559" rx="5.14558" ry="5.14559" fill="white"/>
<ellipse cx="196" cy="5.14559" rx="5.14558" ry="5.14559" fill="white"/>
<ellipse cx="207.227" cy="5.14559" rx="5.14558" ry="5.14559" fill="white"/>
<ellipse cx="218.453" cy="5.14559" rx="5.14558" ry="5.14559" fill="white"/>
<ellipse cx="229.68" cy="5.14559" rx="5.14558" ry="5.14559" fill="white"/>
<ellipse cx="240.907" cy="5.14559" rx="5.14558" ry="5.14559" fill="white"/>
<ellipse cx="252.134" cy="5.14559" rx="5.14559" ry="5.14559" fill="white"/>
<ellipse cx="263.36" cy="5.14559" rx="5.14558" ry="5.14559" fill="white"/>
<ellipse cx="274.587" cy="5.14559" rx="5.14558" ry="5.14559" fill="white"/>
<ellipse cx="285.814" cy="5.14559" rx="5.14558" ry="5.14559" fill="white"/>
<ellipse cx="297.041" cy="5.14559" rx="5.14558" ry="5.14559" fill="white"/>
<ellipse cx="308.267" cy="5.14559" rx="5.14558" ry="5.14559" fill="white"/>
<ellipse cx="319.494" cy="5.14559" rx="5.14558" ry="5.14559" fill="white"/>
<ellipse cx="330.721" cy="5.14559" rx="5.14558" ry="5.14559" fill="white"/>
<ellipse cx="341.948" cy="5.14559" rx="5.14558" ry="5.14559" fill="white"/>
<ellipse cx="353.174" cy="5.14559" rx="5.14558" ry="5.14559" fill="white"/>
<ellipse cx="364.401" cy="5.14559" rx="5.14558" ry="5.14559" fill="white"/>
<ellipse cx="375.628" cy="5.14559" rx="5.1456" ry="5.14559" fill="white"/>
<ellipse cx="386.854" cy="5.14559" rx="5.14558" ry="5.14559" fill="white"/>
<ellipse cx="5.14558" cy="16.3723" rx="5.14558" ry="5.14559" fill="white"/>
<ellipse cx="16.3723" cy="16.3723" rx="5.14558" ry="5.14559" fill="white"/>
<ellipse cx="27.5991" cy="16.3723" rx="5.14559" ry="5.14559" fill="white"/>
<ellipse cx="38.8258" cy="16.3723" rx="5.14558" ry="5.14559" fill="white"/>
<ellipse cx="50.0525" cy="16.3723" rx="5.14559" ry="5.14559" fill="white"/>
<ellipse cx="61.2793" cy="16.3723" rx="5.14558" ry="5.14559" fill="white"/>
<ellipse cx="72.5059" cy="16.3723" rx="5.14558" ry="5.14559" fill="white"/>
<ellipse cx="83.7327" cy="16.3723" rx="5.14558" ry="5.14559" fill="white"/>
<ellipse cx="94.9594" cy="16.3723" rx="5.14558" ry="5.14559" fill="white"/>
<ellipse cx="106.186" cy="16.3723" rx="5.14558" ry="5.14559" fill="white"/>
<ellipse cx="117.413" cy="16.3723" rx="5.14558" ry="5.14559" fill="white"/>
<ellipse cx="128.64" cy="16.3723" rx="5.14559" ry="5.14559" fill="white"/>
<ellipse cx="139.866" cy="16.3723" rx="5.14558" ry="5.14559" fill="white"/>
<ellipse cx="151.093" cy="16.3723" rx="5.14558" ry="5.14559" fill="white"/>
<ellipse cx="162.32" cy="16.3723" rx="5.14558" ry="5.14559" fill="white"/>
<ellipse cx="173.547" cy="16.3723" rx="5.14558" ry="5.14559" fill="white"/>
<ellipse cx="184.773" cy="16.3723" rx="5.14558" ry="5.14559" fill="white"/>
<ellipse cx="196" cy="16.3723" rx="5.14558" ry="5.14559" fill="white"/>
<ellipse cx="207.227" cy="16.3723" rx="5.14558" ry="5.14559" fill="white"/>
<ellipse cx="218.453" cy="16.3723" rx="5.14558" ry="5.14559" fill="white"/>
<ellipse cx="229.68" cy="16.3723" rx="5.14558" ry="5.14559" fill="white"/>
<ellipse cx="240.907" cy="16.3723" rx="5.14558" ry="5.14559" fill="white"/>
<ellipse cx="252.134" cy="16.3723" rx="5.14559" ry="5.14559" fill="white"/>
<ellipse cx="263.36" cy="16.3723" rx="5.14558" ry="5.14559" fill="white"/>
<ellipse cx="274.587" cy="16.3723" rx="5.14558" ry="5.14559" fill="white"/>
<ellipse cx="285.814" cy="16.3723" rx="5.14558" ry="5.14559" fill="white"/>
<ellipse cx="297.041" cy="16.3723" rx="5.14558" ry="5.14559" fill="white"/>
<ellipse cx="308.267" cy="16.3723" rx="5.14558" ry="5.14559" fill="white"/>
<ellipse cx="319.494" cy="16.3723" rx="5.14558" ry="5.14559" fill="white"/>
<ellipse cx="330.721" cy="16.3723" rx="5.14558" ry="5.14559" fill="white"/>
<ellipse cx="341.948" cy="16.3723" rx="5.14558" ry="5.14559" fill="white"/>
<ellipse cx="353.174" cy="16.3723" rx="5.14558" ry="5.14559" fill="white"/>
<ellipse cx="364.401" cy="16.3723" rx="5.14558" ry="5.14559" fill="white"/>
<ellipse cx="375.628" cy="16.3723" rx="5.1456" ry="5.14559" fill="white"/>
<ellipse cx="386.854" cy="16.3723" rx="5.14558" ry="5.14559" fill="white"/>
<ellipse cx="5.14558" cy="27.599" rx="5.14558" ry="5.14559" fill="white"/>
<ellipse cx="16.3723" cy="27.599" rx="5.14558" ry="5.14559" fill="white"/>
<ellipse cx="27.5991" cy="27.599" rx="5.14559" ry="5.14559" fill="white"/>
<ellipse cx="38.8258" cy="27.599" rx="5.14558" ry="5.14559" fill="white"/>
<ellipse cx="50.0525" cy="27.599" rx="5.14559" ry="5.14559" fill="white"/>
<ellipse cx="61.2793" cy="27.599" rx="5.14558" ry="5.14559" fill="white"/>
<ellipse cx="72.5059" cy="27.599" rx="5.14558" ry="5.14559" fill="white"/>
<ellipse cx="83.7327" cy="27.599" rx="5.14558" ry="5.14559" fill="white"/>
<ellipse cx="94.9594" cy="27.599" rx="5.14558" ry="5.14559" fill="white"/>
<ellipse cx="106.186" cy="27.599" rx="5.14558" ry="5.14559" fill="white"/>
<ellipse cx="117.413" cy="27.599" rx="5.14558" ry="5.14559" fill="white"/>
<ellipse cx="128.64" cy="27.599" rx="5.14559" ry="5.14559" fill="white"/>
<ellipse cx="139.866" cy="27.599" rx="5.14558" ry="5.14559" fill="white"/>
<ellipse cx="151.093" cy="27.599" rx="5.14558" ry="5.14559" fill="white"/>
<ellipse cx="162.32" cy="27.599" rx="5.14558" ry="5.14559" fill="white"/>
<ellipse cx="173.547" cy="27.599" rx="5.14558" ry="5.14559" fill="white"/>
<ellipse cx="184.773" cy="27.599" rx="5.14558" ry="5.14559" fill="white"/>
<ellipse cx="196" cy="27.599" rx="5.14558" ry="5.14559" fill="white"/>
<ellipse cx="207.227" cy="27.599" rx="5.14558" ry="5.14559" fill="white"/>
<ellipse cx="218.453" cy="27.599" rx="5.14558" ry="5.14559" fill="white"/>
<ellipse cx="229.68" cy="27.599" rx="5.14558" ry="5.14559" fill="white"/>
<ellipse cx="240.907" cy="27.599" rx="5.14558" ry="5.14559" fill="white"/>
<ellipse cx="252.134" cy="27.599" rx="5.14559" ry="5.14559" fill="white"/>
<ellipse cx="263.36" cy="27.599" rx="5.14558" ry="5.14559" fill="white"/>
<ellipse cx="274.587" cy="27.599" rx="5.14558" ry="5.14559" fill="white"/>
<ellipse cx="285.814" cy="27.599" rx="5.14558" ry="5.14559" fill="white"/>
<ellipse cx="297.041" cy="27.599" rx="5.14558" ry="5.14559" fill="white"/>
<ellipse cx="308.267" cy="27.599" rx="5.14558" ry="5.14559" fill="white"/>
<ellipse cx="319.494" cy="27.599" rx="5.14558" ry="5.14559" fill="white"/>
<ellipse cx="330.721" cy="27.599" rx="5.14558" ry="5.14559" fill="white"/>
<ellipse cx="341.948" cy="27.599" rx="5.14558" ry="5.14559" fill="white"/>
<ellipse cx="353.174" cy="27.599" rx="5.14558" ry="5.14559" fill="white"/>
<ellipse cx="364.401" cy="27.599" rx="5.14558" ry="5.14559" fill="white"/>
<ellipse cx="375.628" cy="27.599" rx="5.1456" ry="5.14559" fill="white"/>
<ellipse cx="386.854" cy="27.599" rx="5.14558" ry="5.14559" fill="white"/>
<ellipse cx="5.14558" cy="38.8258" rx="5.14558" ry="5.14559" fill="white"/>
<ellipse cx="16.3723" cy="38.8258" rx="5.14558" ry="5.14559" fill="white"/>
<ellipse cx="27.5991" cy="38.8258" rx="5.14559" ry="5.14559" fill="white"/>
<ellipse cx="38.8258" cy="38.8258" rx="5.14558" ry="5.14559" fill="white"/>
<ellipse cx="50.0525" cy="38.8258" rx="5.14559" ry="5.14559" fill="white"/>
<ellipse cx="61.2793" cy="38.8258" rx="5.14558" ry="5.14559" fill="white"/>
<ellipse cx="72.5059" cy="38.8258" rx="5.14558" ry="5.14559" fill="white"/>
<ellipse cx="83.7327" cy="38.8258" rx="5.14558" ry="5.14559" fill="white"/>
<ellipse cx="94.9594" cy="38.8258" rx="5.14558" ry="5.14559" fill="white"/>
<ellipse cx="106.186" cy="38.8258" rx="5.14558" ry="5.14559" fill="white"/>
<ellipse cx="117.413" cy="38.8258" rx="5.14558" ry="5.14559" fill="white"/>
<ellipse cx="128.64" cy="38.8258" rx="5.14559" ry="5.14559" fill="white"/>
<ellipse cx="139.866" cy="38.8258" rx="5.14558" ry="5.14559" fill="white"/>
<ellipse cx="151.093" cy="38.8258" rx="5.14558" ry="5.14559" fill="white"/>
<ellipse cx="162.32" cy="38.8258" rx="5.14558" ry="5.14559" fill="white"/>
<ellipse cx="173.547" cy="38.8258" rx="5.14558" ry="5.14559" fill="white"/>
<ellipse cx="184.773" cy="38.8258" rx="5.14558" ry="5.14559" fill="white"/>
<ellipse cx="196" cy="38.8258" rx="5.14558" ry="5.14559" fill="white"/>
<ellipse cx="207.227" cy="38.8258" rx="5.14558" ry="5.14559" fill="white"/>
<ellipse cx="218.453" cy="38.8258" rx="5.14558" ry="5.14559" fill="white"/>
<ellipse cx="229.68" cy="38.8258" rx="5.14558" ry="5.14559" fill="white"/>
<ellipse cx="240.907" cy="38.8258" rx="5.14558" ry="5.14559" fill="white"/>
<ellipse cx="252.134" cy="38.8258" rx="5.14559" ry="5.14559" fill="white"/>
<ellipse cx="263.36" cy="38.8258" rx="5.14558" ry="5.14559" fill="white"/>
<ellipse cx="274.587" cy="38.8258" rx="5.14558" ry="5.14559" fill="white"/>
<ellipse cx="285.814" cy="38.8258" rx="5.14558" ry="5.14559" fill="white"/>
<ellipse cx="297.041" cy="38.8258" rx="5.14558" ry="5.14559" fill="white"/>
<ellipse cx="308.267" cy="38.8258" rx="5.14558" ry="5.14559" fill="white"/>
<ellipse cx="319.494" cy="38.8258" rx="5.14558" ry="5.14559" fill="white"/>
<ellipse cx="330.721" cy="38.8258" rx="5.14558" ry="5.14559" fill="white"/>
<ellipse cx="341.948" cy="38.8258" rx="5.14558" ry="5.14559" fill="white"/>
<ellipse cx="353.174" cy="38.8258" rx="5.14558" ry="5.14559" fill="white"/>
<ellipse cx="364.401" cy="38.8258" rx="5.14558" ry="5.14559" fill="white"/>
<ellipse cx="375.628" cy="38.8258" rx="5.1456" ry="5.14559" fill="white"/>
<ellipse cx="386.854" cy="38.8258" rx="5.14558" ry="5.14559" fill="white"/>
<ellipse cx="5.14558" cy="50.0525" rx="5.14558" ry="5.14559" fill="white"/>
<ellipse cx="16.3723" cy="50.0525" rx="5.14558" ry="5.14559" fill="white"/>
<ellipse cx="27.5991" cy="50.0525" rx="5.14559" ry="5.14559" fill="white"/>
<ellipse cx="38.8258" cy="50.0525" rx="5.14558" ry="5.14559" fill="white"/>
<ellipse cx="50.0525" cy="50.0525" rx="5.14559" ry="5.14559" fill="white"/>
<ellipse cx="61.2793" cy="50.0525" rx="5.14558" ry="5.14559" fill="white"/>
<ellipse cx="72.5059" cy="50.0525" rx="5.14558" ry="5.14559" fill="white"/>
<ellipse cx="83.7327" cy="50.0525" rx="5.14558" ry="5.14559" fill="white"/>
<ellipse cx="94.9594" cy="50.0525" rx="5.14558" ry="5.14559" fill="white"/>
<ellipse cx="106.186" cy="50.0525" rx="5.14558" ry="5.14559" fill="white"/>
<ellipse cx="117.413" cy="50.0525" rx="5.14558" ry="5.14559" fill="white"/>
<ellipse cx="128.64" cy="50.0525" rx="5.14559" ry="5.14559" fill="white"/>
<ellipse cx="139.866" cy="50.0525" rx="5.14558" ry="5.14559" fill="white"/>
<ellipse cx="151.093" cy="50.0525" rx="5.14558" ry="5.14559" fill="white"/>
<ellipse cx="162.32" cy="50.0525" rx="5.14558" ry="5.14559" fill="white"/>
<ellipse cx="173.547" cy="50.0525" rx="5.14558" ry="5.14559" fill="white"/>
<ellipse cx="184.773" cy="50.0525" rx="5.14558" ry="5.14559" fill="white"/>
<ellipse cx="196" cy="50.0525" rx="5.14558" ry="5.14559" fill="white"/>
<ellipse cx="207.227" cy="50.0525" rx="5.14558" ry="5.14559" fill="white"/>
<ellipse cx="218.453" cy="50.0525" rx="5.14558" ry="5.14559" fill="white"/>
<ellipse cx="229.68" cy="50.0525" rx="5.14558" ry="5.14559" fill="white"/>
<ellipse cx="240.907" cy="50.0525" rx="5.14558" ry="5.14559" fill="white"/>
<ellipse cx="252.134" cy="50.0525" rx="5.14559" ry="5.14559" fill="white"/>
<ellipse cx="263.36" cy="50.0525" rx="5.14558" ry="5.14559" fill="white"/>
<ellipse cx="274.587" cy="50.0525" rx="5.14558" ry="5.14559" fill="white"/>
<ellipse cx="285.814" cy="50.0525" rx="5.14558" ry="5.14559" fill="white"/>
<ellipse cx="297.041" cy="50.0525" rx="5.14558" ry="5.14559" fill="white"/>
<ellipse cx="308.267" cy="50.0525" rx="5.14558" ry="5.14559" fill="white"/>
<ellipse cx="319.494" cy="50.0525" rx="5.14558" ry="5.14559" fill="white"/>
<ellipse cx="330.721" cy="50.0525" rx="5.14558" ry="5.14559" fill="white"/>
<ellipse cx="341.948" cy="50.0525" rx="5.14558" ry="5.14559" fill="white"/>
<ellipse cx="353.174" cy="50.0525" rx="5.14558" ry="5.14559" fill="white"/>
<ellipse cx="364.401" cy="50.0525" rx="5.14558" ry="5.14559" fill="white"/>
<ellipse cx="375.628" cy="50.0525" rx="5.1456" ry="5.14559" fill="white"/>
<ellipse cx="386.854" cy="50.0525" rx="5.14558" ry="5.14559" fill="white"/>
<ellipse cx="5.14558" cy="61.2792" rx="5.14558" ry="5.14559" fill="white"/>
<ellipse cx="16.3723" cy="61.2792" rx="5.14558" ry="5.14559" fill="white"/>
<ellipse cx="27.5991" cy="61.2792" rx="5.14559" ry="5.14559" fill="white"/>
<ellipse cx="38.8258" cy="61.2792" rx="5.14558" ry="5.14559" fill="white"/>
<ellipse cx="50.0525" cy="61.2792" rx="5.14559" ry="5.14559" fill="white"/>
<ellipse cx="61.2793" cy="61.2792" rx="5.14558" ry="5.14559" fill="white"/>
<ellipse cx="72.5059" cy="61.2792" rx="5.14558" ry="5.14559" fill="white"/>
<ellipse cx="83.7327" cy="61.2792" rx="5.14558" ry="5.14559" fill="white"/>
<ellipse cx="94.9594" cy="61.2792" rx="5.14558" ry="5.14559" fill="white"/>
<ellipse cx="106.186" cy="61.2792" rx="5.14558" ry="5.14559" fill="white"/>
<ellipse cx="117.413" cy="61.2792" rx="5.14558" ry="5.14559" fill="white"/>
<ellipse cx="128.64" cy="61.2792" rx="5.14559" ry="5.14559" fill="white"/>
<ellipse cx="139.866" cy="61.2792" rx="5.14558" ry="5.14559" fill="white"/>
<ellipse cx="151.093" cy="61.2792" rx="5.14558" ry="5.14559" fill="white"/>
<ellipse cx="162.32" cy="61.2792" rx="5.14558" ry="5.14559" fill="white"/>
<ellipse cx="173.547" cy="61.2792" rx="5.14558" ry="5.14559" fill="white"/>
<ellipse cx="184.773" cy="61.2792" rx="5.14558" ry="5.14559" fill="white"/>
<ellipse cx="196" cy="61.2792" rx="5.14558" ry="5.14559" fill="white"/>
<ellipse cx="207.227" cy="61.2792" rx="5.14558" ry="5.14559" fill="white"/>
<ellipse cx="218.453" cy="61.2792" rx="5.14558" ry="5.14559" fill="white"/>
<ellipse cx="229.68" cy="61.2792" rx="5.14558" ry="5.14559" fill="white"/>
<ellipse cx="240.907" cy="61.2792" rx="5.14558" ry="5.14559" fill="white"/>
<ellipse cx="252.134" cy="61.2792" rx="5.14559" ry="5.14559" fill="white"/>
<ellipse cx="263.36" cy="61.2792" rx="5.14558" ry="5.14559" fill="white"/>
<ellipse cx="274.587" cy="61.2792" rx="5.14558" ry="5.14559" fill="white"/>
<ellipse cx="285.814" cy="61.2792" rx="5.14558" ry="5.14559" fill="white"/>
<ellipse cx="297.041" cy="61.2792" rx="5.14558" ry="5.14559" fill="white"/>
<ellipse cx="308.267" cy="61.2792" rx="5.14558" ry="5.14559" fill="white"/>
<ellipse cx="319.494" cy="61.2792" rx="5.14558" ry="5.14559" fill="white"/>
<ellipse cx="330.721" cy="61.2792" rx="5.14558" ry="5.14559" fill="white"/>
<ellipse cx="341.948" cy="61.2792" rx="5.14558" ry="5.14559" fill="white"/>
<ellipse cx="353.174" cy="61.2792" rx="5.14558" ry="5.14559" fill="white"/>
<ellipse cx="364.401" cy="61.2792" rx="5.14558" ry="5.14559" fill="white"/>
<ellipse cx="375.628" cy="61.2792" rx="5.1456" ry="5.14559" fill="white"/>
<ellipse cx="386.854" cy="61.2792" rx="5.14558" ry="5.14559" fill="white"/>
<ellipse cx="5.14558" cy="72.506" rx="5.14558" ry="5.14559" fill="white"/>
<ellipse cx="16.3723" cy="72.506" rx="5.14558" ry="5.14559" fill="white"/>
<ellipse cx="27.5991" cy="72.506" rx="5.14559" ry="5.14559" fill="white"/>
<ellipse cx="38.8258" cy="72.506" rx="5.14558" ry="5.14559" fill="white"/>
<ellipse cx="50.0525" cy="72.506" rx="5.14559" ry="5.14559" fill="white"/>
<ellipse cx="61.2793" cy="72.506" rx="5.14558" ry="5.14559" fill="white"/>
<ellipse cx="72.5059" cy="72.506" rx="5.14558" ry="5.14559" fill="white"/>
<ellipse cx="83.7327" cy="72.506" rx="5.14558" ry="5.14559" fill="white"/>
<ellipse cx="94.9594" cy="72.506" rx="5.14558" ry="5.14559" fill="white"/>
<ellipse cx="106.186" cy="72.506" rx="5.14558" ry="5.14559" fill="white"/>
<ellipse cx="117.413" cy="72.506" rx="5.14558" ry="5.14559" fill="white"/>
<ellipse cx="128.64" cy="72.506" rx="5.14559" ry="5.14559" fill="white"/>
<ellipse cx="139.866" cy="72.506" rx="5.14558" ry="5.14559" fill="white"/>
<ellipse cx="151.093" cy="72.506" rx="5.14558" ry="5.14559" fill="white"/>
<ellipse cx="162.32" cy="72.506" rx="5.14558" ry="5.14559" fill="white"/>
<ellipse cx="173.547" cy="72.506" rx="5.14558" ry="5.14559" fill="white"/>
<ellipse cx="184.773" cy="72.506" rx="5.14558" ry="5.14559" fill="white"/>
<ellipse cx="196" cy="72.506" rx="5.14558" ry="5.14559" fill="white"/>
<ellipse cx="207.227" cy="72.506" rx="5.14558" ry="5.14559" fill="white"/>
<ellipse cx="218.453" cy="72.506" rx="5.14558" ry="5.14559" fill="white"/>
<ellipse cx="229.68" cy="72.506" rx="5.14558" ry="5.14559" fill="white"/>
<ellipse cx="240.907" cy="72.506" rx="5.14558" ry="5.14559" fill="white"/>
<ellipse cx="252.134" cy="72.506" rx="5.14559" ry="5.14559" fill="white"/>
<ellipse cx="263.36" cy="72.506" rx="5.14558" ry="5.14559" fill="white"/>
<ellipse cx="274.587" cy="72.506" rx="5.14558" ry="5.14559" fill="white"/>
<ellipse cx="285.814" cy="72.506" rx="5.14558" ry="5.14559" fill="white"/>
<ellipse cx="297.041" cy="72.506" rx="5.14558" ry="5.14559" fill="white"/>
<ellipse cx="308.267" cy="72.506" rx="5.14558" ry="5.14559" fill="white"/>
<ellipse cx="319.494" cy="72.506" rx="5.14558" ry="5.14559" fill="white"/>
<ellipse cx="330.721" cy="72.506" rx="5.14558" ry="5.14559" fill="white"/>
<ellipse cx="341.948" cy="72.506" rx="5.14558" ry="5.14559" fill="white"/>
<ellipse cx="353.174" cy="72.506" rx="5.14558" ry="5.14559" fill="white"/>
<ellipse cx="364.401" cy="72.506" rx="5.14558" ry="5.14559" fill="white"/>
<ellipse cx="375.628" cy="72.506" rx="5.1456" ry="5.14559" fill="white"/>
<ellipse cx="386.854" cy="72.506" rx="5.14558" ry="5.14559" fill="white"/>
<ellipse cx="5.14558" cy="83.7327" rx="5.14558" ry="5.14559" fill="white"/>
<ellipse cx="16.3723" cy="83.7327" rx="5.14558" ry="5.14559" fill="white"/>
<ellipse cx="27.5991" cy="83.7327" rx="5.14559" ry="5.14559" fill="white"/>
<ellipse cx="38.8258" cy="83.7327" rx="5.14558" ry="5.14559" fill="white"/>
<ellipse cx="50.0525" cy="83.7327" rx="5.14559" ry="5.14559" fill="white"/>
<ellipse cx="61.2793" cy="83.7327" rx="5.14558" ry="5.14559" fill="white"/>
<ellipse cx="72.5059" cy="83.7327" rx="5.14558" ry="5.14559" fill="white"/>
<ellipse cx="83.7327" cy="83.7327" rx="5.14558" ry="5.14559" fill="white"/>
<ellipse cx="94.9594" cy="83.7327" rx="5.14558" ry="5.14559" fill="white"/>
<ellipse cx="106.186" cy="83.7327" rx="5.14558" ry="5.14559" fill="white"/>
<ellipse cx="117.413" cy="83.7327" rx="5.14558" ry="5.14559" fill="white"/>
<ellipse cx="128.64" cy="83.7327" rx="5.14559" ry="5.14559" fill="white"/>
<ellipse cx="139.866" cy="83.7327" rx="5.14558" ry="5.14559" fill="white"/>
<ellipse cx="151.093" cy="83.7327" rx="5.14558" ry="5.14559" fill="white"/>
<ellipse cx="162.32" cy="83.7327" rx="5.14558" ry="5.14559" fill="white"/>
<ellipse cx="173.547" cy="83.7327" rx="5.14558" ry="5.14559" fill="white"/>
<ellipse cx="184.773" cy="83.7327" rx="5.14558" ry="5.14559" fill="white"/>
<ellipse cx="196" cy="83.7327" rx="5.14558" ry="5.14559" fill="white"/>
<ellipse cx="207.227" cy="83.7327" rx="5.14558" ry="5.14559" fill="white"/>
<ellipse cx="218.453" cy="83.7327" rx="5.14558" ry="5.14559" fill="white"/>
<ellipse cx="229.68" cy="83.7327" rx="5.14558" ry="5.14559" fill="white"/>
<ellipse cx="240.907" cy="83.7327" rx="5.14558" ry="5.14559" fill="white"/>
<ellipse cx="252.134" cy="83.7327" rx="5.14559" ry="5.14559" fill="white"/>
<ellipse cx="263.36" cy="83.7327" rx="5.14558" ry="5.14559" fill="white"/>
<ellipse cx="274.587" cy="83.7327" rx="5.14558" ry="5.14559" fill="white"/>
<ellipse cx="285.814" cy="83.7327" rx="5.14558" ry="5.14559" fill="white"/>
<ellipse cx="297.041" cy="83.7327" rx="5.14558" ry="5.14559" fill="white"/>
<ellipse cx="308.267" cy="83.7327" rx="5.14558" ry="5.14559" fill="white"/>
<ellipse cx="319.494" cy="83.7327" rx="5.14558" ry="5.14559" fill="white"/>
<ellipse cx="330.721" cy="83.7327" rx="5.14558" ry="5.14559" fill="white"/>
<ellipse cx="341.948" cy="83.7327" rx="5.14558" ry="5.14559" fill="white"/>
<ellipse cx="353.174" cy="83.7327" rx="5.14558" ry="5.14559" fill="white"/>
<ellipse cx="364.401" cy="83.7327" rx="5.14558" ry="5.14559" fill="white"/>
<ellipse cx="375.628" cy="83.7327" rx="5.1456" ry="5.14559" fill="white"/>
<ellipse cx="386.854" cy="83.7327" rx="5.14558" ry="5.14559" fill="white"/>
<ellipse cx="5.14558" cy="94.9594" rx="5.14558" ry="5.14559" fill="white"/>
<ellipse cx="16.3723" cy="94.9594" rx="5.14558" ry="5.14559" fill="white"/>
<ellipse cx="27.5991" cy="94.9594" rx="5.14559" ry="5.14559" fill="white"/>
<ellipse cx="38.8258" cy="94.9594" rx="5.14558" ry="5.14559" fill="white"/>
<ellipse cx="50.0525" cy="94.9594" rx="5.14559" ry="5.14559" fill="white"/>
<ellipse cx="61.2793" cy="94.9594" rx="5.14558" ry="5.14559" fill="white"/>
<ellipse cx="72.5059" cy="94.9594" rx="5.14558" ry="5.14559" fill="white"/>
<ellipse cx="83.7327" cy="94.9594" rx="5.14558" ry="5.14559" fill="white"/>
<ellipse cx="94.9594" cy="94.9594" rx="5.14558" ry="5.14559" fill="white"/>
<ellipse cx="106.186" cy="94.9594" rx="5.14558" ry="5.14559" fill="white"/>
<ellipse cx="117.413" cy="94.9594" rx="5.14558" ry="5.14559" fill="white"/>
<ellipse cx="128.64" cy="94.9594" rx="5.14559" ry="5.14559" fill="white"/>
<ellipse cx="139.866" cy="94.9594" rx="5.14558" ry="5.14559" fill="white"/>
<ellipse cx="151.093" cy="94.9594" rx="5.14558" ry="5.14559" fill="white"/>
<ellipse cx="162.32" cy="94.9594" rx="5.14558" ry="5.14559" fill="white"/>
<ellipse cx="173.547" cy="94.9594" rx="5.14558" ry="5.14559" fill="white"/>
<ellipse cx="184.773" cy="94.9594" rx="5.14558" ry="5.14559" fill="white"/>
<ellipse cx="196" cy="94.9594" rx="5.14558" ry="5.14559" fill="white"/>
<ellipse cx="207.227" cy="94.9594" rx="5.14558" ry="5.14559" fill="white"/>
<ellipse cx="218.453" cy="94.9594" rx="5.14558" ry="5.14559" fill="white"/>
<ellipse cx="229.68" cy="94.9594" rx="5.14558" ry="5.14559" fill="white"/>
<ellipse cx="240.907" cy="94.9594" rx="5.14558" ry="5.14559" fill="white"/>
<ellipse cx="252.134" cy="94.9594" rx="5.14559" ry="5.14559" fill="white"/>
<ellipse cx="263.36" cy="94.9594" rx="5.14558" ry="5.14559" fill="white"/>
<ellipse cx="274.587" cy="94.9594" rx="5.14558" ry="5.14559" fill="white"/>
<ellipse cx="285.814" cy="94.9594" rx="5.14558" ry="5.14559" fill="white"/>
<ellipse cx="297.041" cy="94.9594" rx="5.14558" ry="5.14559" fill="white"/>
<ellipse cx="308.267" cy="94.9594" rx="5.14558" ry="5.14559" fill="white"/>
<ellipse cx="319.494" cy="94.9594" rx="5.14558" ry="5.14559" fill="white"/>
<ellipse cx="330.721" cy="94.9594" rx="5.14558" ry="5.14559" fill="white"/>
<ellipse cx="341.948" cy="94.9594" rx="5.14558" ry="5.14559" fill="white"/>
<ellipse cx="353.174" cy="94.9594" rx="5.14558" ry="5.14559" fill="white"/>
<ellipse cx="364.401" cy="94.9594" rx="5.14558" ry="5.14559" fill="white"/>
<ellipse cx="375.628" cy="94.9594" rx="5.1456" ry="5.14559" fill="white"/>
<ellipse cx="386.854" cy="94.9594" rx="5.14558" ry="5.14559" fill="white"/>
<ellipse cx="5.14558" cy="106.186" rx="5.14558" ry="5.14559" fill="white"/>
<ellipse cx="16.3723" cy="106.186" rx="5.14558" ry="5.14559" fill="white"/>
<ellipse cx="27.5991" cy="106.186" rx="5.14559" ry="5.14559" fill="white"/>
<ellipse cx="38.8258" cy="106.186" rx="5.14558" ry="5.14559" fill="white"/>
<ellipse cx="50.0525" cy="106.186" rx="5.14559" ry="5.14559" fill="white"/>
<ellipse cx="61.2793" cy="106.186" rx="5.14558" ry="5.14559" fill="white"/>
<ellipse cx="72.5059" cy="106.186" rx="5.14558" ry="5.14559" fill="white"/>
<ellipse cx="83.7327" cy="106.186" rx="5.14558" ry="5.14559" fill="white"/>
<ellipse cx="94.9594" cy="106.186" rx="5.14558" ry="5.14559" fill="white"/>
<ellipse cx="106.186" cy="106.186" rx="5.14558" ry="5.14559" fill="white"/>
<ellipse cx="117.413" cy="106.186" rx="5.14558" ry="5.14559" fill="white"/>
<ellipse cx="128.64" cy="106.186" rx="5.14559" ry="5.14559" fill="white"/>
<ellipse cx="139.866" cy="106.186" rx="5.14558" ry="5.14559" fill="white"/>
<ellipse cx="151.093" cy="106.186" rx="5.14558" ry="5.14559" fill="white"/>
<ellipse cx="162.32" cy="106.186" rx="5.14558" ry="5.14559" fill="white"/>
<ellipse cx="173.547" cy="106.186" rx="5.14558" ry="5.14559" fill="white"/>
<ellipse cx="184.773" cy="106.186" rx="5.14558" ry="5.14559" fill="white"/>
<ellipse cx="196" cy="106.186" rx="5.14558" ry="5.14559" fill="white"/>
<ellipse cx="207.227" cy="106.186" rx="5.14558" ry="5.14559" fill="white"/>
<ellipse cx="218.453" cy="106.186" rx="5.14558" ry="5.14559" fill="white"/>
<ellipse cx="229.68" cy="106.186" rx="5.14558" ry="5.14559" fill="white"/>
<ellipse cx="240.907" cy="106.186" rx="5.14558" ry="5.14559" fill="white"/>
<ellipse cx="252.134" cy="106.186" rx="5.14559" ry="5.14559" fill="white"/>
<ellipse cx="263.36" cy="106.186" rx="5.14558" ry="5.14559" fill="white"/>
<ellipse cx="274.587" cy="106.186" rx="5.14558" ry="5.14559" fill="white"/>
<ellipse cx="285.814" cy="106.186" rx="5.14558" ry="5.14559" fill="white"/>
<ellipse cx="297.041" cy="106.186" rx="5.14558" ry="5.14559" fill="white"/>
<ellipse cx="308.267" cy="106.186" rx="5.14558" ry="5.14559" fill="white"/>
<ellipse cx="319.494" cy="106.186" rx="5.14558" ry="5.14559" fill="white"/>
<ellipse cx="330.721" cy="106.186" rx="5.14558" ry="5.14559" fill="white"/>
<ellipse cx="341.948" cy="106.186" rx="5.14558" ry="5.14559" fill="white"/>
<ellipse cx="353.174" cy="106.186" rx="5.14558" ry="5.14559" fill="white"/>
<ellipse cx="364.401" cy="106.186" rx="5.14558" ry="5.14559" fill="white"/>
<ellipse cx="375.628" cy="106.186" rx="5.1456" ry="5.14559" fill="white"/>
<ellipse cx="386.854" cy="106.186" rx="5.14558" ry="5.14559" fill="white"/>
<ellipse cx="5.14558" cy="117.413" rx="5.14558" ry="5.14559" fill="white"/>
<ellipse cx="16.3723" cy="117.413" rx="5.14558" ry="5.14559" fill="white"/>
<ellipse cx="27.5991" cy="117.413" rx="5.14559" ry="5.14559" fill="white"/>
<ellipse cx="38.8258" cy="117.413" rx="5.14558" ry="5.14559" fill="white"/>
<ellipse cx="50.0525" cy="117.413" rx="5.14559" ry="5.14559" fill="white"/>
<ellipse cx="61.2793" cy="117.413" rx="5.14558" ry="5.14559" fill="white"/>
<ellipse cx="72.5059" cy="117.413" rx="5.14558" ry="5.14559" fill="white"/>
<ellipse cx="83.7327" cy="117.413" rx="5.14558" ry="5.14559" fill="white"/>
<ellipse cx="94.9594" cy="117.413" rx="5.14558" ry="5.14559" fill="white"/>
<ellipse cx="106.186" cy="117.413" rx="5.14558" ry="5.14559" fill="white"/>
<ellipse cx="117.413" cy="117.413" rx="5.14558" ry="5.14559" fill="white"/>
<ellipse cx="128.64" cy="117.413" rx="5.14559" ry="5.14559" fill="white"/>
<ellipse cx="139.866" cy="117.413" rx="5.14558" ry="5.14559" fill="white"/>
<ellipse cx="151.093" cy="117.413" rx="5.14558" ry="5.14559" fill="white"/>
<ellipse cx="162.32" cy="117.413" rx="5.14558" ry="5.14559" fill="white"/>
<ellipse cx="173.547" cy="117.413" rx="5.14558" ry="5.14559" fill="white"/>
<ellipse cx="184.773" cy="117.413" rx="5.14558" ry="5.14559" fill="white"/>
<ellipse cx="196" cy="117.413" rx="5.14558" ry="5.14559" fill="white"/>
<ellipse cx="207.227" cy="117.413" rx="5.14558" ry="5.14559" fill="white"/>
<ellipse cx="218.453" cy="117.413" rx="5.14558" ry="5.14559" fill="white"/>
<ellipse cx="229.68" cy="117.413" rx="5.14558" ry="5.14559" fill="white"/>
<ellipse cx="240.907" cy="117.413" rx="5.14558" ry="5.14559" fill="white"/>
<ellipse cx="252.134" cy="117.413" rx="5.14559" ry="5.14559" fill="white"/>
<ellipse cx="263.36" cy="117.413" rx="5.14558" ry="5.14559" fill="white"/>
<ellipse cx="274.587" cy="117.413" rx="5.14558" ry="5.14559" fill="white"/>
<ellipse cx="285.814" cy="117.413" rx="5.14558" ry="5.14559" fill="white"/>
<ellipse cx="297.041" cy="117.413" rx="5.14558" ry="5.14559" fill="white"/>
<ellipse cx="308.267" cy="117.413" rx="5.14558" ry="5.14559" fill="white"/>
<ellipse cx="319.494" cy="117.413" rx="5.14558" ry="5.14559" fill="white"/>
<ellipse cx="330.721" cy="117.413" rx="5.14558" ry="5.14559" fill="white"/>
<ellipse cx="341.948" cy="117.413" rx="5.14558" ry="5.14559" fill="white"/>
<ellipse cx="353.174" cy="117.413" rx="5.14558" ry="5.14559" fill="white"/>
<ellipse cx="364.401" cy="117.413" rx="5.14558" ry="5.14559" fill="white"/>
<ellipse cx="375.628" cy="117.413" rx="5.1456" ry="5.14559" fill="white"/>
<ellipse cx="386.854" cy="117.413" rx="5.14558" ry="5.14559" fill="white"/>
<ellipse cx="5.14558" cy="128.64" rx="5.14558" ry="5.14559" fill="white"/>
<ellipse cx="16.3723" cy="128.64" rx="5.14558" ry="5.14559" fill="white"/>
<ellipse cx="27.5991" cy="128.64" rx="5.14559" ry="5.14559" fill="white"/>
<ellipse cx="38.8258" cy="128.64" rx="5.14558" ry="5.14559" fill="white"/>
<ellipse cx="50.0525" cy="128.64" rx="5.14559" ry="5.14559" fill="white"/>
<ellipse cx="61.2793" cy="128.64" rx="5.14558" ry="5.14559" fill="white"/>
<ellipse cx="72.5059" cy="128.64" rx="5.14558" ry="5.14559" fill="white"/>
<ellipse cx="83.7327" cy="128.64" rx="5.14558" ry="5.14559" fill="white"/>
<ellipse cx="94.9594" cy="128.64" rx="5.14558" ry="5.14559" fill="white"/>
<ellipse cx="106.186" cy="128.64" rx="5.14558" ry="5.14559" fill="white"/>
<ellipse cx="117.413" cy="128.64" rx="5.14558" ry="5.14559" fill="white"/>
<ellipse cx="128.64" cy="128.64" rx="5.14559" ry="5.14559" fill="white"/>
<ellipse cx="139.866" cy="128.64" rx="5.14558" ry="5.14559" fill="white"/>
<ellipse cx="151.093" cy="128.64" rx="5.14558" ry="5.14559" fill="white"/>
<ellipse cx="162.32" cy="128.64" rx="5.14558" ry="5.14559" fill="white"/>
<ellipse cx="173.547" cy="128.64" rx="5.14558" ry="5.14559" fill="white"/>
<ellipse cx="184.773" cy="128.64" rx="5.14558" ry="5.14559" fill="white"/>
<ellipse cx="196" cy="128.64" rx="5.14558" ry="5.14559" fill="white"/>
<ellipse cx="207.227" cy="128.64" rx="5.14558" ry="5.14559" fill="white"/>
<ellipse cx="218.453" cy="128.64" rx="5.14558" ry="5.14559" fill="white"/>
<ellipse cx="229.68" cy="128.64" rx="5.14558" ry="5.14559" fill="white"/>
<ellipse cx="240.907" cy="128.64" rx="5.14558" ry="5.14559" fill="white"/>
<ellipse cx="252.134" cy="128.64" rx="5.14559" ry="5.14559" fill="white"/>
<ellipse cx="263.36" cy="128.64" rx="5.14558" ry="5.14559" fill="white"/>
<ellipse cx="274.587" cy="128.64" rx="5.14558" ry="5.14559" fill="white"/>
<ellipse cx="285.814" cy="128.64" rx="5.14558" ry="5.14559" fill="white"/>
<ellipse cx="297.041" cy="128.64" rx="5.14558" ry="5.14559" fill="white"/>
<ellipse cx="308.267" cy="128.64" rx="5.14558" ry="5.14559" fill="white"/>
<ellipse cx="319.494" cy="128.64" rx="5.14558" ry="5.14559" fill="white"/>
<ellipse cx="330.721" cy="128.64" rx="5.14558" ry="5.14559" fill="white"/>
<ellipse cx="341.948" cy="128.64" rx="5.14558" ry="5.14559" fill="white"/>
<ellipse cx="353.174" cy="128.64" rx="5.14558" ry="5.14559" fill="white"/>
<ellipse cx="364.401" cy="128.64" rx="5.14558" ry="5.14559" fill="white"/>
<ellipse cx="375.628" cy="128.64" rx="5.1456" ry="5.14559" fill="white"/>
<ellipse cx="386.854" cy="128.64" rx="5.14558" ry="5.14559" fill="white"/>
<ellipse cx="5.14558" cy="139.866" rx="5.14558" ry="5.14559" fill="white"/>
<ellipse cx="16.3723" cy="139.866" rx="5.14558" ry="5.14559" fill="white"/>
<ellipse cx="27.5991" cy="139.866" rx="5.14559" ry="5.14559" fill="white"/>
<ellipse cx="38.8258" cy="139.866" rx="5.14558" ry="5.14559" fill="white"/>
<ellipse cx="50.0525" cy="139.866" rx="5.14559" ry="5.14559" fill="white"/>
<ellipse cx="61.2793" cy="139.866" rx="5.14558" ry="5.14559" fill="white"/>
<ellipse cx="72.5059" cy="139.866" rx="5.14558" ry="5.14559" fill="white"/>
<ellipse cx="83.7327" cy="139.866" rx="5.14558" ry="5.14559" fill="white"/>
<ellipse cx="94.9594" cy="139.866" rx="5.14558" ry="5.14559" fill="white"/>
<ellipse cx="106.186" cy="139.866" rx="5.14558" ry="5.14559" fill="white"/>
<ellipse cx="117.413" cy="139.866" rx="5.14558" ry="5.14559" fill="white"/>
<ellipse cx="128.64" cy="139.866" rx="5.14559" ry="5.14559" fill="white"/>
<ellipse cx="139.866" cy="139.866" rx="5.14558" ry="5.14559" fill="white"/>
<ellipse cx="151.093" cy="139.866" rx="5.14558" ry="5.14559" fill="white"/>
<ellipse cx="162.32" cy="139.866" rx="5.14558" ry="5.14559" fill="white"/>
<ellipse cx="173.547" cy="139.866" rx="5.14558" ry="5.14559" fill="white"/>
<ellipse cx="184.773" cy="139.866" rx="5.14558" ry="5.14559" fill="white"/>
<ellipse cx="196" cy="139.866" rx="5.14558" ry="5.14559" fill="white"/>
<ellipse cx="207.227" cy="139.866" rx="5.14558" ry="5.14559" fill="white"/>
<ellipse cx="218.453" cy="139.866" rx="5.14558" ry="5.14559" fill="white"/>
<ellipse cx="229.68" cy="139.866" rx="5.14558" ry="5.14559" fill="white"/>
<ellipse cx="240.907" cy="139.866" rx="5.14558" ry="5.14559" fill="white"/>
<ellipse cx="252.134" cy="139.866" rx="5.14559" ry="5.14559" fill="white"/>
<ellipse cx="263.36" cy="139.866" rx="5.14558" ry="5.14559" fill="white"/>
<ellipse cx="274.587" cy="139.866" rx="5.14558" ry="5.14559" fill="white"/>
<ellipse cx="285.814" cy="139.866" rx="5.14558" ry="5.14559" fill="white"/>
<ellipse cx="297.041" cy="139.866" rx="5.14558" ry="5.14559" fill="white"/>
<ellipse cx="308.267" cy="139.866" rx="5.14558" ry="5.14559" fill="white"/>
<ellipse cx="319.494" cy="139.866" rx="5.14558" ry="5.14559" fill="white"/>
<ellipse cx="330.721" cy="139.866" rx="5.14558" ry="5.14559" fill="white"/>
<ellipse cx="341.948" cy="139.866" rx="5.14558" ry="5.14559" fill="white"/>
<ellipse cx="353.174" cy="139.866" rx="5.14558" ry="5.14559" fill="white"/>
<ellipse cx="364.401" cy="139.866" rx="5.14558" ry="5.14559" fill="white"/>
<ellipse cx="375.628" cy="139.866" rx="5.1456" ry="5.14559" fill="white"/>
<ellipse cx="386.854" cy="139.866" rx="5.14558" ry="5.14559" fill="white"/>
<ellipse cx="5.14558" cy="151.093" rx="5.14558" ry="5.14559" fill="white"/>
<ellipse cx="16.3723" cy="151.093" rx="5.14558" ry="5.14559" fill="white"/>
<ellipse cx="27.5991" cy="151.093" rx="5.14559" ry="5.14559" fill="white"/>
<ellipse cx="38.8258" cy="151.093" rx="5.14558" ry="5.14559" fill="white"/>
<ellipse cx="50.0525" cy="151.093" rx="5.14559" ry="5.14559" fill="white"/>
<ellipse cx="61.2793" cy="151.093" rx="5.14558" ry="5.14559" fill="white"/>
<ellipse cx="72.5059" cy="151.093" rx="5.14558" ry="5.14559" fill="white"/>
<ellipse cx="83.7327" cy="151.093" rx="5.14558" ry="5.14559" fill="white"/>
<ellipse cx="94.9594" cy="151.093" rx="5.14558" ry="5.14559" fill="white"/>
<ellipse cx="106.186" cy="151.093" rx="5.14558" ry="5.14559" fill="white"/>
<ellipse cx="117.413" cy="151.093" rx="5.14558" ry="5.14559" fill="white"/>
<ellipse cx="128.64" cy="151.093" rx="5.14559" ry="5.14559" fill="white"/>
<ellipse cx="139.866" cy="151.093" rx="5.14558" ry="5.14559" fill="white"/>
<ellipse cx="151.093" cy="151.093" rx="5.14558" ry="5.14559" fill="white"/>
<ellipse cx="162.32" cy="151.093" rx="5.14558" ry="5.14559" fill="white"/>
<ellipse cx="173.547" cy="151.093" rx="5.14558" ry="5.14559" fill="white"/>
<ellipse cx="184.773" cy="151.093" rx="5.14558" ry="5.14559" fill="white"/>
<ellipse cx="196" cy="151.093" rx="5.14558" ry="5.14559" fill="white"/>
<ellipse cx="207.227" cy="151.093" rx="5.14558" ry="5.14559" fill="white"/>
<ellipse cx="218.453" cy="151.093" rx="5.14558" ry="5.14559" fill="white"/>
<ellipse cx="229.68" cy="151.093" rx="5.14558" ry="5.14559" fill="white"/>
<ellipse cx="240.907" cy="151.093" rx="5.14558" ry="5.14559" fill="white"/>
<ellipse cx="252.134" cy="151.093" rx="5.14559" ry="5.14559" fill="white"/>
<ellipse cx="263.36" cy="151.093" rx="5.14558" ry="5.14559" fill="white"/>
<ellipse cx="274.587" cy="151.093" rx="5.14558" ry="5.14559" fill="white"/>
<ellipse cx="285.814" cy="151.093" rx="5.14558" ry="5.14559" fill="white"/>
<ellipse cx="297.041" cy="151.093" rx="5.14558" ry="5.14559" fill="white"/>
<ellipse cx="308.267" cy="151.093" rx="5.14558" ry="5.14559" fill="white"/>
<ellipse cx="319.494" cy="151.093" rx="5.14558" ry="5.14559" fill="white"/>
<ellipse cx="330.721" cy="151.093" rx="5.14558" ry="5.14559" fill="white"/>
<ellipse cx="341.948" cy="151.093" rx="5.14558" ry="5.14559" fill="white"/>
<ellipse cx="353.174" cy="151.093" rx="5.14558" ry="5.14559" fill="white"/>
<ellipse cx="364.401" cy="151.093" rx="5.14558" ry="5.14559" fill="white"/>
<ellipse cx="375.628" cy="151.093" rx="5.1456" ry="5.14559" fill="white"/>
<ellipse cx="386.854" cy="151.093" rx="5.14558" ry="5.14559" fill="white"/>
<ellipse cx="5.14558" cy="162.32" rx="5.14558" ry="5.14559" fill="white"/>
<ellipse cx="16.3723" cy="162.32" rx="5.14558" ry="5.14559" fill="white"/>
<ellipse cx="27.5991" cy="162.32" rx="5.14559" ry="5.14559" fill="white"/>
<ellipse cx="38.8258" cy="162.32" rx="5.14558" ry="5.14559" fill="white"/>
<ellipse cx="50.0525" cy="162.32" rx="5.14559" ry="5.14559" fill="white"/>
<ellipse cx="61.2793" cy="162.32" rx="5.14558" ry="5.14559" fill="white"/>
<ellipse cx="72.5059" cy="162.32" rx="5.14558" ry="5.14559" fill="white"/>
<ellipse cx="83.7327" cy="162.32" rx="5.14558" ry="5.14559" fill="white"/>
<ellipse cx="94.9594" cy="162.32" rx="5.14558" ry="5.14559" fill="white"/>
<ellipse cx="106.186" cy="162.32" rx="5.14558" ry="5.14559" fill="white"/>
<ellipse cx="117.413" cy="162.32" rx="5.14558" ry="5.14559" fill="white"/>
<ellipse cx="128.64" cy="162.32" rx="5.14559" ry="5.14559" fill="white"/>
<ellipse cx="139.866" cy="162.32" rx="5.14558" ry="5.14559" fill="white"/>
<ellipse cx="151.093" cy="162.32" rx="5.14558" ry="5.14559" fill="white"/>
<ellipse cx="162.32" cy="162.32" rx="5.14558" ry="5.14559" fill="white"/>
<ellipse cx="173.547" cy="162.32" rx="5.14558" ry="5.14559" fill="white"/>
<ellipse cx="184.773" cy="162.32" rx="5.14558" ry="5.14559" fill="white"/>
<ellipse cx="196" cy="162.32" rx="5.14558" ry="5.14559" fill="white"/>
<ellipse cx="207.227" cy="162.32" rx="5.14558" ry="5.14559" fill="white"/>
<ellipse cx="218.453" cy="162.32" rx="5.14558" ry="5.14559" fill="white"/>
<ellipse cx="229.68" cy="162.32" rx="5.14558" ry="5.14559" fill="white"/>
<ellipse cx="240.907" cy="162.32" rx="5.14558" ry="5.14559" fill="white"/>
<ellipse cx="252.134" cy="162.32" rx="5.14559" ry="5.14559" fill="white"/>
<ellipse cx="263.36" cy="162.32" rx="5.14558" ry="5.14559" fill="white"/>
<ellipse cx="274.587" cy="162.32" rx="5.14558" ry="5.14559" fill="white"/>
<ellipse cx="285.814" cy="162.32" rx="5.14558" ry="5.14559" fill="white"/>
<ellipse cx="297.041" cy="162.32" rx="5.14558" ry="5.14559" fill="white"/>
<ellipse cx="308.267" cy="162.32" rx="5.14558" ry="5.14559" fill="white"/>
<ellipse cx="319.494" cy="162.32" rx="5.14558" ry="5.14559" fill="white"/>
<ellipse cx="330.721" cy="162.32" rx="5.14558" ry="5.14559" fill="white"/>
<ellipse cx="341.948" cy="162.32" rx="5.14558" ry="5.14559" fill="white"/>
<ellipse cx="353.174" cy="162.32" rx="5.14558" ry="5.14559" fill="white"/>
<ellipse cx="364.401" cy="162.32" rx="5.14558" ry="5.14559" fill="white"/>
<ellipse cx="375.628" cy="162.32" rx="5.1456" ry="5.14559" fill="white"/>
<ellipse cx="386.854" cy="162.32" rx="5.14558" ry="5.14559" fill="white"/>
<ellipse cx="5.14558" cy="173.547" rx="5.14558" ry="5.14559" fill="white"/>
<ellipse cx="16.3723" cy="173.547" rx="5.14558" ry="5.14559" fill="white"/>
<ellipse cx="27.5991" cy="173.547" rx="5.14559" ry="5.14559" fill="white"/>
<ellipse cx="38.8258" cy="173.547" rx="5.14558" ry="5.14559" fill="white"/>
<ellipse cx="50.0525" cy="173.547" rx="5.14559" ry="5.14559" fill="white"/>
<ellipse cx="61.2793" cy="173.547" rx="5.14558" ry="5.14559" fill="white"/>
<ellipse cx="72.5059" cy="173.547" rx="5.14558" ry="5.14559" fill="white"/>
<ellipse cx="83.7327" cy="173.547" rx="5.14558" ry="5.14559" fill="white"/>
<ellipse cx="94.9594" cy="173.547" rx="5.14558" ry="5.14559" fill="white"/>
<ellipse cx="106.186" cy="173.547" rx="5.14558" ry="5.14559" fill="white"/>
<ellipse cx="117.413" cy="173.547" rx="5.14558" ry="5.14559" fill="white"/>
<ellipse cx="128.64" cy="173.547" rx="5.14559" ry="5.14559" fill="white"/>
<ellipse cx="139.866" cy="173.547" rx="5.14558" ry="5.14559" fill="white"/>
<ellipse cx="151.093" cy="173.547" rx="5.14558" ry="5.14559" fill="white"/>
<ellipse cx="162.32" cy="173.547" rx="5.14558" ry="5.14559" fill="white"/>
<ellipse cx="173.547" cy="173.547" rx="5.14558" ry="5.14559" fill="white"/>
<ellipse cx="184.773" cy="173.547" rx="5.14558" ry="5.14559" fill="white"/>
<ellipse cx="196" cy="173.547" rx="5.14558" ry="5.14559" fill="white"/>
<ellipse cx="207.227" cy="173.547" rx="5.14558" ry="5.14559" fill="white"/>
<ellipse cx="218.453" cy="173.547" rx="5.14558" ry="5.14559" fill="white"/>
<ellipse cx="229.68" cy="173.547" rx="5.14558" ry="5.14559" fill="white"/>
<ellipse cx="240.907" cy="173.547" rx="5.14558" ry="5.14559" fill="white"/>
<ellipse cx="252.134" cy="173.547" rx="5.14559" ry="5.14559" fill="white"/>
<ellipse cx="263.36" cy="173.547" rx="5.14558" ry="5.14559" fill="white"/>
<ellipse cx="274.587" cy="173.547" rx="5.14558" ry="5.14559" fill="white"/>
<ellipse cx="285.814" cy="173.547" rx="5.14558" ry="5.14559" fill="white"/>
<ellipse cx="297.041" cy="173.547" rx="5.14558" ry="5.14559" fill="white"/>
<ellipse cx="308.267" cy="173.547" rx="5.14558" ry="5.14559" fill="white"/>
<ellipse cx="319.494" cy="173.547" rx="5.14558" ry="5.14559" fill="white"/>
<ellipse cx="330.721" cy="173.547" rx="5.14558" ry="5.14559" fill="white"/>
<ellipse cx="341.948" cy="173.547" rx="5.14558" ry="5.14559" fill="white"/>
<ellipse cx="353.174" cy="173.547" rx="5.14558" ry="5.14559" fill="white"/>
<ellipse cx="364.401" cy="173.547" rx="5.14558" ry="5.14559" fill="white"/>
<ellipse cx="375.628" cy="173.547" rx="5.1456" ry="5.14559" fill="white"/>
<ellipse cx="386.854" cy="173.547" rx="5.14558" ry="5.14559" fill="white"/>
<ellipse cx="5.14558" cy="184.773" rx="5.14558" ry="5.14559" fill="white"/>
<ellipse cx="16.3723" cy="184.773" rx="5.14558" ry="5.14559" fill="white"/>
<ellipse cx="27.5991" cy="184.773" rx="5.14559" ry="5.14559" fill="white"/>
<ellipse cx="38.8258" cy="184.773" rx="5.14558" ry="5.14559" fill="white"/>
<ellipse cx="50.0525" cy="184.773" rx="5.14559" ry="5.14559" fill="white"/>
<ellipse cx="61.2793" cy="184.773" rx="5.14558" ry="5.14559" fill="white"/>
<ellipse cx="72.5059" cy="184.773" rx="5.14558" ry="5.14559" fill="white"/>
<ellipse cx="83.7327" cy="184.773" rx="5.14558" ry="5.14559" fill="white"/>
<ellipse cx="94.9594" cy="184.773" rx="5.14558" ry="5.14559" fill="white"/>
<ellipse cx="106.186" cy="184.773" rx="5.14558" ry="5.14559" fill="white"/>
<ellipse cx="117.413" cy="184.773" rx="5.14558" ry="5.14559" fill="white"/>
<ellipse cx="128.64" cy="184.773" rx="5.14559" ry="5.14559" fill="white"/>
<ellipse cx="139.866" cy="184.773" rx="5.14558" ry="5.14559" fill="white"/>
<ellipse cx="151.093" cy="184.773" rx="5.14558" ry="5.14559" fill="white"/>
<ellipse cx="162.32" cy="184.773" rx="5.14558" ry="5.14559" fill="white"/>
<ellipse cx="173.547" cy="184.773" rx="5.14558" ry="5.14559" fill="white"/>
<ellipse cx="184.773" cy="184.773" rx="5.14558" ry="5.14559" fill="white"/>
<ellipse cx="196" cy="184.773" rx="5.14558" ry="5.14559" fill="white"/>
<ellipse cx="207.227" cy="184.773" rx="5.14558" ry="5.14559" fill="white"/>
<ellipse cx="218.453" cy="184.773" rx="5.14558" ry="5.14559" fill="white"/>
<ellipse cx="229.68" cy="184.773" rx="5.14558" ry="5.14559" fill="white"/>
<ellipse cx="240.907" cy="184.773" rx="5.14558" ry="5.14559" fill="white"/>
<ellipse cx="252.134" cy="184.773" rx="5.14559" ry="5.14559" fill="white"/>
<ellipse cx="263.36" cy="184.773" rx="5.14558" ry="5.14559" fill="white"/>
<ellipse cx="274.587" cy="184.773" rx="5.14558" ry="5.14559" fill="white"/>
<ellipse cx="285.814" cy="184.773" rx="5.14558" ry="5.14559" fill="white"/>
<ellipse cx="297.041" cy="184.773" rx="5.14558" ry="5.14559" fill="white"/>
<ellipse cx="308.267" cy="184.773" rx="5.14558" ry="5.14559" fill="white"/>
<ellipse cx="319.494" cy="184.773" rx="5.14558" ry="5.14559" fill="white"/>
<ellipse cx="330.721" cy="184.773" rx="5.14558" ry="5.14559" fill="white"/>
<ellipse cx="341.948" cy="184.773" rx="5.14558" ry="5.14559" fill="white"/>
<ellipse cx="353.174" cy="184.773" rx="5.14558" ry="5.14559" fill="white"/>
<ellipse cx="364.401" cy="184.773" rx="5.14558" ry="5.14559" fill="white"/>
<ellipse cx="375.628" cy="184.773" rx="5.1456" ry="5.14559" fill="white"/>
<ellipse cx="386.854" cy="184.773" rx="5.14558" ry="5.14559" fill="white"/>
<ellipse cx="5.14558" cy="196" rx="5.14558" ry="5.14559" fill="white"/>
<ellipse cx="16.3723" cy="196" rx="5.14558" ry="5.14559" fill="white"/>
<ellipse cx="27.5991" cy="196" rx="5.14559" ry="5.14559" fill="white"/>
<ellipse cx="38.8258" cy="196" rx="5.14558" ry="5.14559" fill="white"/>
<ellipse cx="50.0525" cy="196" rx="5.14559" ry="5.14559" fill="white"/>
<ellipse cx="61.2793" cy="196" rx="5.14558" ry="5.14559" fill="white"/>
<ellipse cx="72.5059" cy="196" rx="5.14558" ry="5.14559" fill="white"/>
<ellipse cx="83.7327" cy="196" rx="5.14558" ry="5.14559" fill="white"/>
<ellipse cx="94.9594" cy="196" rx="5.14558" ry="5.14559" fill="white"/>
<ellipse cx="106.186" cy="196" rx="5.14558" ry="5.14559" fill="white"/>
<ellipse cx="117.413" cy="196" rx="5.14558" ry="5.14559" fill="white"/>
<ellipse cx="128.64" cy="196" rx="5.14559" ry="5.14559" fill="white"/>
<ellipse cx="139.866" cy="196" rx="5.14558" ry="5.14559" fill="white"/>
<ellipse cx="151.093" cy="196" rx="5.14558" ry="5.14559" fill="white"/>
<ellipse cx="162.32" cy="196" rx="5.14558" ry="5.14559" fill="white"/>
<ellipse cx="173.547" cy="196" rx="5.14558" ry="5.14559" fill="white"/>
<ellipse cx="184.773" cy="196" rx="5.14558" ry="5.14559" fill="white"/>
<ellipse cx="196" cy="196" rx="5.14558" ry="5.14559" fill="white"/>
<ellipse cx="207.227" cy="196" rx="5.14558" ry="5.14559" fill="white"/>
<ellipse cx="218.453" cy="196" rx="5.14558" ry="5.14559" fill="white"/>
<ellipse cx="229.68" cy="196" rx="5.14558" ry="5.14559" fill="white"/>
<ellipse cx="240.907" cy="196" rx="5.14558" ry="5.14559" fill="white"/>
<ellipse cx="252.134" cy="196" rx="5.14559" ry="5.14559" fill="white"/>
<ellipse cx="263.36" cy="196" rx="5.14558" ry="5.14559" fill="white"/>
<ellipse cx="274.587" cy="196" rx="5.14558" ry="5.14559" fill="white"/>
<ellipse cx="285.814" cy="196" rx="5.14558" ry="5.14559" fill="white"/>
<ellipse cx="297.041" cy="196" rx="5.14558" ry="5.14559" fill="white"/>
<ellipse cx="308.267" cy="196" rx="5.14558" ry="5.14559" fill="white"/>
<ellipse cx="319.494" cy="196" rx="5.14558" ry="5.14559" fill="white"/>
<ellipse cx="330.721" cy="196" rx="5.14558" ry="5.14559" fill="white"/>
<ellipse cx="341.948" cy="196" rx="5.14558" ry="5.14559" fill="white"/>
<ellipse cx="353.174" cy="196" rx="5.14558" ry="5.14559" fill="white"/>
<ellipse cx="364.401" cy="196" rx="5.14558" ry="5.14559" fill="white"/>
<ellipse cx="375.628" cy="196" rx="5.1456" ry="5.14559" fill="white"/>
<ellipse cx="386.854" cy="196" rx="5.14558" ry="5.14559" fill="white"/>
<ellipse cx="5.14558" cy="207.227" rx="5.14558" ry="5.14559" fill="white"/>
<ellipse cx="16.3723" cy="207.227" rx="5.14558" ry="5.14559" fill="white"/>
<ellipse cx="27.5991" cy="207.227" rx="5.14559" ry="5.14559" fill="white"/>
<ellipse cx="38.8258" cy="207.227" rx="5.14558" ry="5.14559" fill="white"/>
<ellipse cx="50.0525" cy="207.227" rx="5.14559" ry="5.14559" fill="white"/>
<ellipse cx="61.2793" cy="207.227" rx="5.14558" ry="5.14559" fill="white"/>
<ellipse cx="72.5059" cy="207.227" rx="5.14558" ry="5.14559" fill="white"/>
<ellipse cx="83.7327" cy="207.227" rx="5.14558" ry="5.14559" fill="white"/>
<ellipse cx="94.9594" cy="207.227" rx="5.14558" ry="5.14559" fill="white"/>
<ellipse cx="106.186" cy="207.227" rx="5.14558" ry="5.14559" fill="white"/>
<ellipse cx="117.413" cy="207.227" rx="5.14558" ry="5.14559" fill="white"/>
<ellipse cx="128.64" cy="207.227" rx="5.14559" ry="5.14559" fill="white"/>
<ellipse cx="139.866" cy="207.227" rx="5.14558" ry="5.14559" fill="white"/>
<ellipse cx="151.093" cy="207.227" rx="5.14558" ry="5.14559" fill="white"/>
<ellipse cx="162.32" cy="207.227" rx="5.14558" ry="5.14559" fill="white"/>
<ellipse cx="173.547" cy="207.227" rx="5.14558" ry="5.14559" fill="white"/>
<ellipse cx="184.773" cy="207.227" rx="5.14558" ry="5.14559" fill="white"/>
<ellipse cx="196" cy="207.227" rx="5.14558" ry="5.14559" fill="white"/>
<ellipse cx="207.227" cy="207.227" rx="5.14558" ry="5.14559" fill="white"/>
<ellipse cx="218.453" cy="207.227" rx="5.14558" ry="5.14559" fill="white"/>
<ellipse cx="229.68" cy="207.227" rx="5.14558" ry="5.14559" fill="white"/>
<ellipse cx="240.907" cy="207.227" rx="5.14558" ry="5.14559" fill="white"/>
<ellipse cx="252.134" cy="207.227" rx="5.14559" ry="5.14559" fill="white"/>
<ellipse cx="263.36" cy="207.227" rx="5.14558" ry="5.14559" fill="white"/>
<ellipse cx="274.587" cy="207.227" rx="5.14558" ry="5.14559" fill="white"/>
<ellipse cx="285.814" cy="207.227" rx="5.14558" ry="5.14559" fill="white"/>
<ellipse cx="297.041" cy="207.227" rx="5.14558" ry="5.14559" fill="white"/>
<ellipse cx="308.267" cy="207.227" rx="5.14558" ry="5.14559" fill="white"/>
<ellipse cx="319.494" cy="207.227" rx="5.14558" ry="5.14559" fill="white"/>
<ellipse cx="330.721" cy="207.227" rx="5.14558" ry="5.14559" fill="white"/>
<ellipse cx="341.948" cy="207.227" rx="5.14558" ry="5.14559" fill="white"/>
<ellipse cx="353.174" cy="207.227" rx="5.14558" ry="5.14559" fill="white"/>
<ellipse cx="364.401" cy="207.227" rx="5.14558" ry="5.14559" fill="white"/>
<ellipse cx="375.628" cy="207.227" rx="5.1456" ry="5.14559" fill="white"/>
<ellipse cx="386.854" cy="207.227" rx="5.14558" ry="5.14559" fill="white"/>
<ellipse cx="5.14558" cy="218.453" rx="5.14558" ry="5.14559" fill="white"/>
<ellipse cx="16.3723" cy="218.453" rx="5.14558" ry="5.14559" fill="white"/>
<ellipse cx="27.5991" cy="218.453" rx="5.14559" ry="5.14559" fill="white"/>
<ellipse cx="38.8258" cy="218.453" rx="5.14558" ry="5.14559" fill="white"/>
<ellipse cx="50.0525" cy="218.453" rx="5.14559" ry="5.14559" fill="white"/>
<ellipse cx="61.2793" cy="218.453" rx="5.14558" ry="5.14559" fill="white"/>
<ellipse cx="72.5059" cy="218.453" rx="5.14558" ry="5.14559" fill="white"/>
<ellipse cx="83.7327" cy="218.453" rx="5.14558" ry="5.14559" fill="white"/>
<ellipse cx="94.9594" cy="218.453" rx="5.14558" ry="5.14559" fill="white"/>
<ellipse cx="106.186" cy="218.453" rx="5.14558" ry="5.14559" fill="white"/>
<ellipse cx="117.413" cy="218.453" rx="5.14558" ry="5.14559" fill="white"/>
<ellipse cx="128.64" cy="218.453" rx="5.14559" ry="5.14559" fill="white"/>
<ellipse cx="139.866" cy="218.453" rx="5.14558" ry="5.14559" fill="white"/>
<ellipse cx="151.093" cy="218.453" rx="5.14558" ry="5.14559" fill="white"/>
<ellipse cx="162.32" cy="218.453" rx="5.14558" ry="5.14559" fill="white"/>
<ellipse cx="173.547" cy="218.453" rx="5.14558" ry="5.14559" fill="white"/>
<ellipse cx="184.773" cy="218.453" rx="5.14558" ry="5.14559" fill="white"/>
<ellipse cx="196" cy="218.453" rx="5.14558" ry="5.14559" fill="white"/>
<ellipse cx="207.227" cy="218.453" rx="5.14558" ry="5.14559" fill="white"/>
<ellipse cx="218.453" cy="218.453" rx="5.14558" ry="5.14559" fill="white"/>
<ellipse cx="229.68" cy="218.453" rx="5.14558" ry="5.14559" fill="white"/>
<ellipse cx="240.907" cy="218.453" rx="5.14558" ry="5.14559" fill="white"/>
<ellipse cx="252.134" cy="218.453" rx="5.14559" ry="5.14559" fill="white"/>
<ellipse cx="263.36" cy="218.453" rx="5.14558" ry="5.14559" fill="white"/>
<ellipse cx="274.587" cy="218.453" rx="5.14558" ry="5.14559" fill="white"/>
<ellipse cx="285.814" cy="218.453" rx="5.14558" ry="5.14559" fill="white"/>
<ellipse cx="297.041" cy="218.453" rx="5.14558" ry="5.14559" fill="white"/>
<ellipse cx="308.267" cy="218.453" rx="5.14558" ry="5.14559" fill="white"/>
<ellipse cx="319.494" cy="218.453" rx="5.14558" ry="5.14559" fill="white"/>
<ellipse cx="330.721" cy="218.453" rx="5.14558" ry="5.14559" fill="white"/>
<ellipse cx="341.948" cy="218.453" rx="5.14558" ry="5.14559" fill="white"/>
<ellipse cx="353.174" cy="218.453" rx="5.14558" ry="5.14559" fill="white"/>
<ellipse cx="364.401" cy="218.453" rx="5.14558" ry="5.14559" fill="white"/>
<ellipse cx="375.628" cy="218.453" rx="5.1456" ry="5.14559" fill="white"/>
<ellipse cx="386.854" cy="218.453" rx="5.14558" ry="5.14559" fill="white"/>
<ellipse cx="5.14558" cy="229.68" rx="5.14558" ry="5.14559" fill="white"/>
<ellipse cx="16.3723" cy="229.68" rx="5.14558" ry="5.14559" fill="white"/>
<ellipse cx="27.5991" cy="229.68" rx="5.14559" ry="5.14559" fill="white"/>
<ellipse cx="38.8258" cy="229.68" rx="5.14558" ry="5.14559" fill="white"/>
<ellipse cx="50.0525" cy="229.68" rx="5.14559" ry="5.14559" fill="white"/>
<ellipse cx="61.2793" cy="229.68" rx="5.14558" ry="5.14559" fill="white"/>
<ellipse cx="72.5059" cy="229.68" rx="5.14558" ry="5.14559" fill="white"/>
<ellipse cx="83.7327" cy="229.68" rx="5.14558" ry="5.14559" fill="white"/>
<ellipse cx="94.9594" cy="229.68" rx="5.14558" ry="5.14559" fill="white"/>
<ellipse cx="106.186" cy="229.68" rx="5.14558" ry="5.14559" fill="white"/>
<ellipse cx="117.413" cy="229.68" rx="5.14558" ry="5.14559" fill="white"/>
<ellipse cx="128.64" cy="229.68" rx="5.14559" ry="5.14559" fill="white"/>
<ellipse cx="139.866" cy="229.68" rx="5.14558" ry="5.14559" fill="white"/>
<ellipse cx="151.093" cy="229.68" rx="5.14558" ry="5.14559" fill="white"/>
<ellipse cx="162.32" cy="229.68" rx="5.14558" ry="5.14559" fill="white"/>
<ellipse cx="173.547" cy="229.68" rx="5.14558" ry="5.14559" fill="white"/>
<ellipse cx="184.773" cy="229.68" rx="5.14558" ry="5.14559" fill="white"/>
<ellipse cx="196" cy="229.68" rx="5.14558" ry="5.14559" fill="white"/>
<ellipse cx="207.227" cy="229.68" rx="5.14558" ry="5.14559" fill="white"/>
<ellipse cx="218.453" cy="229.68" rx="5.14558" ry="5.14559" fill="white"/>
<ellipse cx="229.68" cy="229.68" rx="5.14558" ry="5.14559" fill="white"/>
<ellipse cx="240.907" cy="229.68" rx="5.14558" ry="5.14559" fill="white"/>
<ellipse cx="252.134" cy="229.68" rx="5.14559" ry="5.14559" fill="white"/>
<ellipse cx="263.36" cy="229.68" rx="5.14558" ry="5.14559" fill="white"/>
<ellipse cx="274.587" cy="229.68" rx="5.14558" ry="5.14559" fill="white"/>
<ellipse cx="285.814" cy="229.68" rx="5.14558" ry="5.14559" fill="white"/>
<ellipse cx="297.041" cy="229.68" rx="5.14558" ry="5.14559" fill="white"/>
<ellipse cx="308.267" cy="229.68" rx="5.14558" ry="5.14559" fill="white"/>
<ellipse cx="319.494" cy="229.68" rx="5.14558" ry="5.14559" fill="white"/>
<ellipse cx="330.721" cy="229.68" rx="5.14558" ry="5.14559" fill="white"/>
<ellipse cx="341.948" cy="229.68" rx="5.14558" ry="5.14559" fill="white"/>
<ellipse cx="353.174" cy="229.68" rx="5.14558" ry="5.14559" fill="white"/>
<ellipse cx="364.401" cy="229.68" rx="5.14558" ry="5.14559" fill="white"/>
<ellipse cx="375.628" cy="229.68" rx="5.1456" ry="5.14559" fill="white"/>
<ellipse cx="386.854" cy="229.68" rx="5.14558" ry="5.14559" fill="white"/>
<ellipse cx="5.14558" cy="240.907" rx="5.14558" ry="5.14559" fill="white"/>
<ellipse cx="16.3723" cy="240.907" rx="5.14558" ry="5.14559" fill="white"/>
<ellipse cx="27.5991" cy="240.907" rx="5.14559" ry="5.14559" fill="white"/>
<ellipse cx="38.8258" cy="240.907" rx="5.14558" ry="5.14559" fill="white"/>
<ellipse cx="50.0525" cy="240.907" rx="5.14559" ry="5.14559" fill="white"/>
<ellipse cx="61.2793" cy="240.907" rx="5.14558" ry="5.14559" fill="white"/>
<ellipse cx="72.5059" cy="240.907" rx="5.14558" ry="5.14559" fill="white"/>
<ellipse cx="83.7327" cy="240.907" rx="5.14558" ry="5.14559" fill="white"/>
<ellipse cx="94.9594" cy="240.907" rx="5.14558" ry="5.14559" fill="white"/>
<ellipse cx="106.186" cy="240.907" rx="5.14558" ry="5.14559" fill="white"/>
<ellipse cx="117.413" cy="240.907" rx="5.14558" ry="5.14559" fill="white"/>
<ellipse cx="128.64" cy="240.907" rx="5.14559" ry="5.14559" fill="white"/>
<ellipse cx="139.866" cy="240.907" rx="5.14558" ry="5.14559" fill="white"/>
<ellipse cx="151.093" cy="240.907" rx="5.14558" ry="5.14559" fill="white"/>
<ellipse cx="162.32" cy="240.907" rx="5.14558" ry="5.14559" fill="white"/>
<ellipse cx="173.547" cy="240.907" rx="5.14558" ry="5.14559" fill="white"/>
<ellipse cx="184.773" cy="240.907" rx="5.14558" ry="5.14559" fill="white"/>
<ellipse cx="196" cy="240.907" rx="5.14558" ry="5.14559" fill="white"/>
<ellipse cx="207.227" cy="240.907" rx="5.14558" ry="5.14559" fill="white"/>
<ellipse cx="218.453" cy="240.907" rx="5.14558" ry="5.14559" fill="white"/>
<ellipse cx="229.68" cy="240.907" rx="5.14558" ry="5.14559" fill="white"/>
<ellipse cx="240.907" cy="240.907" rx="5.14558" ry="5.14559" fill="white"/>
<ellipse cx="252.134" cy="240.907" rx="5.14559" ry="5.14559" fill="white"/>
<ellipse cx="263.36" cy="240.907" rx="5.14558" ry="5.14559" fill="white"/>
<ellipse cx="274.587" cy="240.907" rx="5.14558" ry="5.14559" fill="white"/>
<ellipse cx="285.814" cy="240.907" rx="5.14558" ry="5.14559" fill="white"/>
<ellipse cx="297.041" cy="240.907" rx="5.14558" ry="5.14559" fill="white"/>
<ellipse cx="308.267" cy="240.907" rx="5.14558" ry="5.14559" fill="white"/>
<ellipse cx="319.494" cy="240.907" rx="5.14558" ry="5.14559" fill="white"/>
<ellipse cx="330.721" cy="240.907" rx="5.14558" ry="5.14559" fill="white"/>
<ellipse cx="341.948" cy="240.907" rx="5.14558" ry="5.14559" fill="white"/>
<ellipse cx="353.174" cy="240.907" rx="5.14558" ry="5.14559" fill="white"/>
<ellipse cx="364.401" cy="240.907" rx="5.14558" ry="5.14559" fill="white"/>
<ellipse cx="375.628" cy="240.907" rx="5.1456" ry="5.14559" fill="white"/>
<ellipse cx="386.854" cy="240.907" rx="5.14558" ry="5.14559" fill="white"/>
<ellipse cx="5.14558" cy="252.134" rx="5.14558" ry="5.14559" fill="white"/>
<ellipse cx="16.3723" cy="252.134" rx="5.14558" ry="5.14559" fill="white"/>
<ellipse cx="27.5991" cy="252.134" rx="5.14559" ry="5.14559" fill="white"/>
<ellipse cx="38.8258" cy="252.134" rx="5.14558" ry="5.14559" fill="white"/>
<ellipse cx="50.0525" cy="252.134" rx="5.14559" ry="5.14559" fill="white"/>
<ellipse cx="61.2793" cy="252.134" rx="5.14558" ry="5.14559" fill="white"/>
<ellipse cx="72.5059" cy="252.134" rx="5.14558" ry="5.14559" fill="white"/>
<ellipse cx="83.7327" cy="252.134" rx="5.14558" ry="5.14559" fill="white"/>
<ellipse cx="94.9594" cy="252.134" rx="5.14558" ry="5.14559" fill="white"/>
<ellipse cx="106.186" cy="252.134" rx="5.14558" ry="5.14559" fill="white"/>
<ellipse cx="117.413" cy="252.134" rx="5.14558" ry="5.14559" fill="white"/>
<ellipse cx="128.64" cy="252.134" rx="5.14559" ry="5.14559" fill="white"/>
<ellipse cx="139.866" cy="252.134" rx="5.14558" ry="5.14559" fill="white"/>
<ellipse cx="151.093" cy="252.134" rx="5.14558" ry="5.14559" fill="white"/>
<ellipse cx="162.32" cy="252.134" rx="5.14558" ry="5.14559" fill="white"/>
<ellipse cx="173.547" cy="252.134" rx="5.14558" ry="5.14559" fill="white"/>
<ellipse cx="184.773" cy="252.134" rx="5.14558" ry="5.14559" fill="white"/>
<ellipse cx="196" cy="252.134" rx="5.14558" ry="5.14559" fill="white"/>
<ellipse cx="207.227" cy="252.134" rx="5.14558" ry="5.14559" fill="white"/>
<ellipse cx="218.453" cy="252.134" rx="5.14558" ry="5.14559" fill="white"/>
<ellipse cx="229.68" cy="252.134" rx="5.14558" ry="5.14559" fill="white"/>
<ellipse cx="240.907" cy="252.134" rx="5.14558" ry="5.14559" fill="white"/>
<ellipse cx="252.134" cy="252.134" rx="5.14559" ry="5.14559" fill="white"/>
<ellipse cx="263.36" cy="252.134" rx="5.14558" ry="5.14559" fill="white"/>
<ellipse cx="274.587" cy="252.134" rx="5.14558" ry="5.14559" fill="white"/>
<ellipse cx="285.814" cy="252.134" rx="5.14558" ry="5.14559" fill="white"/>
<ellipse cx="297.041" cy="252.134" rx="5.14558" ry="5.14559" fill="white"/>
<ellipse cx="308.267" cy="252.134" rx="5.14558" ry="5.14559" fill="white"/>
<ellipse cx="319.494" cy="252.134" rx="5.14558" ry="5.14559" fill="white"/>
<ellipse cx="330.721" cy="252.134" rx="5.14558" ry="5.14559" fill="white"/>
<ellipse cx="341.948" cy="252.134" rx="5.14558" ry="5.14559" fill="white"/>
<ellipse cx="353.174" cy="252.134" rx="5.14558" ry="5.14559" fill="white"/>
<ellipse cx="364.401" cy="252.134" rx="5.14558" ry="5.14559" fill="white"/>
<ellipse cx="375.628" cy="252.134" rx="5.1456" ry="5.14559" fill="white"/>
<ellipse cx="386.854" cy="252.134" rx="5.14558" ry="5.14559" fill="white"/>
<ellipse cx="5.14558" cy="263.36" rx="5.14558" ry="5.14559" fill="white"/>
<ellipse cx="16.3723" cy="263.36" rx="5.14558" ry="5.14559" fill="white"/>
<ellipse cx="27.5991" cy="263.36" rx="5.14559" ry="5.14559" fill="white"/>
<ellipse cx="38.8258" cy="263.36" rx="5.14558" ry="5.14559" fill="white"/>
<ellipse cx="50.0525" cy="263.36" rx="5.14559" ry="5.14559" fill="white"/>
<ellipse cx="61.2793" cy="263.36" rx="5.14558" ry="5.14559" fill="white"/>
<ellipse cx="72.5059" cy="263.36" rx="5.14558" ry="5.14559" fill="white"/>
<ellipse cx="83.7327" cy="263.36" rx="5.14558" ry="5.14559" fill="white"/>
<ellipse cx="94.9594" cy="263.36" rx="5.14558" ry="5.14559" fill="white"/>
<ellipse cx="106.186" cy="263.36" rx="5.14558" ry="5.14559" fill="white"/>
<ellipse cx="117.413" cy="263.36" rx="5.14558" ry="5.14559" fill="white"/>
<ellipse cx="128.64" cy="263.36" rx="5.14559" ry="5.14559" fill="white"/>
<ellipse cx="139.866" cy="263.36" rx="5.14558" ry="5.14559" fill="white"/>
<ellipse cx="151.093" cy="263.36" rx="5.14558" ry="5.14559" fill="white"/>
<ellipse cx="162.32" cy="263.36" rx="5.14558" ry="5.14559" fill="white"/>
<ellipse cx="173.547" cy="263.36" rx="5.14558" ry="5.14559" fill="white"/>
<ellipse cx="184.773" cy="263.36" rx="5.14558" ry="5.14559" fill="white"/>
<ellipse cx="196" cy="263.36" rx="5.14558" ry="5.14559" fill="white"/>
<ellipse cx="207.227" cy="263.36" rx="5.14558" ry="5.14559" fill="white"/>
<ellipse cx="218.453" cy="263.36" rx="5.14558" ry="5.14559" fill="white"/>
<ellipse cx="229.68" cy="263.36" rx="5.14558" ry="5.14559" fill="white"/>
<ellipse cx="240.907" cy="263.36" rx="5.14558" ry="5.14559" fill="white"/>
<ellipse cx="252.134" cy="263.36" rx="5.14559" ry="5.14559" fill="white"/>
<ellipse cx="263.36" cy="263.36" rx="5.14558" ry="5.14559" fill="white"/>
<ellipse cx="274.587" cy="263.36" rx="5.14558" ry="5.14559" fill="white"/>
<ellipse cx="285.814" cy="263.36" rx="5.14558" ry="5.14559" fill="white"/>
<ellipse cx="297.041" cy="263.36" rx="5.14558" ry="5.14559" fill="white"/>
<ellipse cx="308.267" cy="263.36" rx="5.14558" ry="5.14559" fill="white"/>
<ellipse cx="319.494" cy="263.36" rx="5.14558" ry="5.14559" fill="white"/>
<ellipse cx="330.721" cy="263.36" rx="5.14558" ry="5.14559" fill="white"/>
<ellipse cx="341.948" cy="263.36" rx="5.14558" ry="5.14559" fill="white"/>
<ellipse cx="353.174" cy="263.36" rx="5.14558" ry="5.14559" fill="white"/>
<ellipse cx="364.401" cy="263.36" rx="5.14558" ry="5.14559" fill="white"/>
<ellipse cx="375.628" cy="263.36" rx="5.1456" ry="5.14559" fill="white"/>
<ellipse cx="386.854" cy="263.36" rx="5.14558" ry="5.14559" fill="white"/>
<ellipse cx="5.14558" cy="274.587" rx="5.14558" ry="5.14559" fill="white"/>
<ellipse cx="16.3723" cy="274.587" rx="5.14558" ry="5.14559" fill="white"/>
<ellipse cx="27.5991" cy="274.587" rx="5.14559" ry="5.14559" fill="white"/>
<ellipse cx="38.8258" cy="274.587" rx="5.14558" ry="5.14559" fill="white"/>
<ellipse cx="50.0525" cy="274.587" rx="5.14559" ry="5.14559" fill="white"/>
<ellipse cx="61.2793" cy="274.587" rx="5.14558" ry="5.14559" fill="white"/>
<ellipse cx="72.5059" cy="274.587" rx="5.14558" ry="5.14559" fill="white"/>
<ellipse cx="83.7327" cy="274.587" rx="5.14558" ry="5.14559" fill="white"/>
<ellipse cx="94.9594" cy="274.587" rx="5.14558" ry="5.14559" fill="white"/>
<ellipse cx="106.186" cy="274.587" rx="5.14558" ry="5.14559" fill="white"/>
<ellipse cx="117.413" cy="274.587" rx="5.14558" ry="5.14559" fill="white"/>
<ellipse cx="128.64" cy="274.587" rx="5.14559" ry="5.14559" fill="white"/>
<ellipse cx="139.866" cy="274.587" rx="5.14558" ry="5.14559" fill="white"/>
<ellipse cx="151.093" cy="274.587" rx="5.14558" ry="5.14559" fill="white"/>
<ellipse cx="162.32" cy="274.587" rx="5.14558" ry="5.14559" fill="white"/>
<ellipse cx="173.547" cy="274.587" rx="5.14558" ry="5.14559" fill="white"/>
<ellipse cx="184.773" cy="274.587" rx="5.14558" ry="5.14559" fill="white"/>
<ellipse cx="196" cy="274.587" rx="5.14558" ry="5.14559" fill="white"/>
<ellipse cx="207.227" cy="274.587" rx="5.14558" ry="5.14559" fill="white"/>
<ellipse cx="218.453" cy="274.587" rx="5.14558" ry="5.14559" fill="white"/>
<ellipse cx="229.68" cy="274.587" rx="5.14558" ry="5.14559" fill="white"/>
<ellipse cx="240.907" cy="274.587" rx="5.14558" ry="5.14559" fill="white"/>
<ellipse cx="252.134" cy="274.587" rx="5.14559" ry="5.14559" fill="white"/>
<ellipse cx="263.36" cy="274.587" rx="5.14558" ry="5.14559" fill="white"/>
<ellipse cx="274.587" cy="274.587" rx="5.14558" ry="5.14559" fill="white"/>
<ellipse cx="285.814" cy="274.587" rx="5.14558" ry="5.14559" fill="white"/>
<ellipse cx="297.041" cy="274.587" rx="5.14558" ry="5.14559" fill="white"/>
<ellipse cx="308.267" cy="274.587" rx="5.14558" ry="5.14559" fill="white"/>
<ellipse cx="319.494" cy="274.587" rx="5.14558" ry="5.14559" fill="white"/>
<ellipse cx="330.721" cy="274.587" rx="5.14558" ry="5.14559" fill="white"/>
<ellipse cx="341.948" cy="274.587" rx="5.14558" ry="5.14559" fill="white"/>
<ellipse cx="353.174" cy="274.587" rx="5.14558" ry="5.14559" fill="white"/>
<ellipse cx="364.401" cy="274.587" rx="5.14558" ry="5.14559" fill="white"/>
<ellipse cx="375.628" cy="274.587" rx="5.1456" ry="5.14559" fill="white"/>
<ellipse cx="386.854" cy="274.587" rx="5.14558" ry="5.14559" fill="white"/>
<ellipse cx="5.14558" cy="285.814" rx="5.14558" ry="5.14559" fill="white"/>
<ellipse cx="16.3723" cy="285.814" rx="5.14558" ry="5.14559" fill="white"/>
<ellipse cx="27.5991" cy="285.814" rx="5.14559" ry="5.14559" fill="white"/>
<ellipse cx="38.8258" cy="285.814" rx="5.14558" ry="5.14559" fill="white"/>
<ellipse cx="50.0525" cy="285.814" rx="5.14559" ry="5.14559" fill="white"/>
<ellipse cx="61.2793" cy="285.814" rx="5.14558" ry="5.14559" fill="white"/>
<ellipse cx="72.5059" cy="285.814" rx="5.14558" ry="5.14559" fill="white"/>
<ellipse cx="83.7327" cy="285.814" rx="5.14558" ry="5.14559" fill="white"/>
<ellipse cx="94.9594" cy="285.814" rx="5.14558" ry="5.14559" fill="white"/>
<ellipse cx="106.186" cy="285.814" rx="5.14558" ry="5.14559" fill="white"/>
<ellipse cx="117.413" cy="285.814" rx="5.14558" ry="5.14559" fill="white"/>
<ellipse cx="128.64" cy="285.814" rx="5.14559" ry="5.14559" fill="white"/>
<ellipse cx="139.866" cy="285.814" rx="5.14558" ry="5.14559" fill="white"/>
<ellipse cx="151.093" cy="285.814" rx="5.14558" ry="5.14559" fill="white"/>
<ellipse cx="162.32" cy="285.814" rx="5.14558" ry="5.14559" fill="white"/>
<ellipse cx="173.547" cy="285.814" rx="5.14558" ry="5.14559" fill="white"/>
<ellipse cx="184.773" cy="285.814" rx="5.14558" ry="5.14559" fill="white"/>
<ellipse cx="196" cy="285.814" rx="5.14558" ry="5.14559" fill="white"/>
<ellipse cx="207.227" cy="285.814" rx="5.14558" ry="5.14559" fill="white"/>
<ellipse cx="218.453" cy="285.814" rx="5.14558" ry="5.14559" fill="white"/>
<ellipse cx="229.68" cy="285.814" rx="5.14558" ry="5.14559" fill="white"/>
<ellipse cx="240.907" cy="285.814" rx="5.14558" ry="5.14559" fill="white"/>
<ellipse cx="252.134" cy="285.814" rx="5.14559" ry="5.14559" fill="white"/>
<ellipse cx="263.36" cy="285.814" rx="5.14558" ry="5.14559" fill="white"/>
<ellipse cx="274.587" cy="285.814" rx="5.14558" ry="5.14559" fill="white"/>
<ellipse cx="285.814" cy="285.814" rx="5.14558" ry="5.14559" fill="white"/>
<ellipse cx="297.041" cy="285.814" rx="5.14558" ry="5.14559" fill="white"/>
<ellipse cx="308.267" cy="285.814" rx="5.14558" ry="5.14559" fill="white"/>
<ellipse cx="319.494" cy="285.814" rx="5.14558" ry="5.14559" fill="white"/>
<ellipse cx="330.721" cy="285.814" rx="5.14558" ry="5.14559" fill="white"/>
<ellipse cx="341.948" cy="285.814" rx="5.14558" ry="5.14559" fill="white"/>
<ellipse cx="353.174" cy="285.814" rx="5.14558" ry="5.14559" fill="white"/>
<ellipse cx="364.401" cy="285.814" rx="5.14558" ry="5.14559" fill="white"/>
<ellipse cx="375.628" cy="285.814" rx="5.1456" ry="5.14559" fill="white"/>
<ellipse cx="386.854" cy="285.814" rx="5.14558" ry="5.14559" fill="white"/>
<ellipse cx="5.14558" cy="297.041" rx="5.14558" ry="5.14559" fill="white"/>
<ellipse cx="16.3723" cy="297.041" rx="5.14558" ry="5.14559" fill="white"/>
<ellipse cx="27.5991" cy="297.041" rx="5.14559" ry="5.14559" fill="white"/>
<ellipse cx="38.8258" cy="297.041" rx="5.14558" ry="5.14559" fill="white"/>
<ellipse cx="50.0525" cy="297.041" rx="5.14559" ry="5.14559" fill="white"/>
<ellipse cx="61.2793" cy="297.041" rx="5.14558" ry="5.14559" fill="white"/>
<ellipse cx="72.5059" cy="297.041" rx="5.14558" ry="5.14559" fill="white"/>
<ellipse cx="83.7327" cy="297.041" rx="5.14558" ry="5.14559" fill="white"/>
<ellipse cx="94.9594" cy="297.041" rx="5.14558" ry="5.14559" fill="white"/>
<ellipse cx="106.186" cy="297.041" rx="5.14558" ry="5.14559" fill="white"/>
<ellipse cx="117.413" cy="297.041" rx="5.14558" ry="5.14559" fill="white"/>
<ellipse cx="128.64" cy="297.041" rx="5.14559" ry="5.14559" fill="white"/>
<ellipse cx="139.866" cy="297.041" rx="5.14558" ry="5.14559" fill="white"/>
<ellipse cx="151.093" cy="297.041" rx="5.14558" ry="5.14559" fill="white"/>
<ellipse cx="162.32" cy="297.041" rx="5.14558" ry="5.14559" fill="white"/>
<ellipse cx="173.547" cy="297.041" rx="5.14558" ry="5.14559" fill="white"/>
<ellipse cx="184.773" cy="297.041" rx="5.14558" ry="5.14559" fill="white"/>
<ellipse cx="196" cy="297.041" rx="5.14558" ry="5.14559" fill="white"/>
<ellipse cx="207.227" cy="297.041" rx="5.14558" ry="5.14559" fill="white"/>
<ellipse cx="218.453" cy="297.041" rx="5.14558" ry="5.14559" fill="white"/>
<ellipse cx="229.68" cy="297.041" rx="5.14558" ry="5.14559" fill="white"/>
<ellipse cx="240.907" cy="297.041" rx="5.14558" ry="5.14559" fill="white"/>
<ellipse cx="252.134" cy="297.041" rx="5.14559" ry="5.14559" fill="white"/>
<ellipse cx="263.36" cy="297.041" rx="5.14558" ry="5.14559" fill="white"/>
<ellipse cx="274.587" cy="297.041" rx="5.14558" ry="5.14559" fill="white"/>
<ellipse cx="285.814" cy="297.041" rx="5.14558" ry="5.14559" fill="white"/>
<ellipse cx="297.041" cy="297.041" rx="5.14558" ry="5.14559" fill="white"/>
<ellipse cx="308.267" cy="297.041" rx="5.14558" ry="5.14559" fill="white"/>
<ellipse cx="319.494" cy="297.041" rx="5.14558" ry="5.14559" fill="white"/>
<ellipse cx="330.721" cy="297.041" rx="5.14558" ry="5.14559" fill="white"/>
<ellipse cx="341.948" cy="297.041" rx="5.14558" ry="5.14559" fill="white"/>
<ellipse cx="353.174" cy="297.041" rx="5.14558" ry="5.14559" fill="white"/>
<ellipse cx="364.401" cy="297.041" rx="5.14558" ry="5.14559" fill="white"/>
<ellipse cx="375.628" cy="297.041" rx="5.1456" ry="5.14559" fill="white"/>
<ellipse cx="386.854" cy="297.041" rx="5.14558" ry="5.14559" fill="white"/>
<ellipse cx="5.14558" cy="308.267" rx="5.14558" ry="5.14559" fill="white"/>
<ellipse cx="16.3723" cy="308.267" rx="5.14558" ry="5.14559" fill="white"/>
<ellipse cx="27.5991" cy="308.267" rx="5.14559" ry="5.14559" fill="white"/>
<ellipse cx="38.8258" cy="308.267" rx="5.14558" ry="5.14559" fill="white"/>
<ellipse cx="50.0525" cy="308.267" rx="5.14559" ry="5.14559" fill="white"/>
<ellipse cx="61.2793" cy="308.267" rx="5.14558" ry="5.14559" fill="white"/>
<ellipse cx="72.5059" cy="308.267" rx="5.14558" ry="5.14559" fill="white"/>
<ellipse cx="83.7327" cy="308.267" rx="5.14558" ry="5.14559" fill="white"/>
<ellipse cx="94.9594" cy="308.267" rx="5.14558" ry="5.14559" fill="white"/>
<ellipse cx="106.186" cy="308.267" rx="5.14558" ry="5.14559" fill="white"/>
<ellipse cx="117.413" cy="308.267" rx="5.14558" ry="5.14559" fill="white"/>
<ellipse cx="128.64" cy="308.267" rx="5.14559" ry="5.14559" fill="white"/>
<ellipse cx="139.866" cy="308.267" rx="5.14558" ry="5.14559" fill="white"/>
<ellipse cx="151.093" cy="308.267" rx="5.14558" ry="5.14559" fill="white"/>
<ellipse cx="162.32" cy="308.267" rx="5.14558" ry="5.14559" fill="white"/>
<ellipse cx="173.547" cy="308.267" rx="5.14558" ry="5.14559" fill="white"/>
<ellipse cx="184.773" cy="308.267" rx="5.14558" ry="5.14559" fill="white"/>
<ellipse cx="196" cy="308.267" rx="5.14558" ry="5.14559" fill="white"/>
<ellipse cx="207.227" cy="308.267" rx="5.14558" ry="5.14559" fill="white"/>
<ellipse cx="218.453" cy="308.267" rx="5.14558" ry="5.14559" fill="white"/>
<ellipse cx="229.68" cy="308.267" rx="5.14558" ry="5.14559" fill="white"/>
<ellipse cx="240.907" cy="308.267" rx="5.14558" ry="5.14559" fill="white"/>
<ellipse cx="252.134" cy="308.267" rx="5.14559" ry="5.14559" fill="white"/>
<ellipse cx="263.36" cy="308.267" rx="5.14558" ry="5.14559" fill="white"/>
<ellipse cx="274.587" cy="308.267" rx="5.14558" ry="5.14559" fill="white"/>
<ellipse cx="285.814" cy="308.267" rx="5.14558" ry="5.14559" fill="white"/>
<ellipse cx="297.041" cy="308.267" rx="5.14558" ry="5.14559" fill="white"/>
<ellipse cx="308.267" cy="308.267" rx="5.14558" ry="5.14559" fill="white"/>
<ellipse cx="319.494" cy="308.267" rx="5.14558" ry="5.14559" fill="white"/>
<ellipse cx="330.721" cy="308.267" rx="5.14558" ry="5.14559" fill="white"/>
<ellipse cx="341.948" cy="308.267" rx="5.14558" ry="5.14559" fill="white"/>
<ellipse cx="353.174" cy="308.267" rx="5.14558" ry="5.14559" fill="white"/>
<ellipse cx="364.401" cy="308.267" rx="5.14558" ry="5.14559" fill="white"/>
<ellipse cx="375.628" cy="308.267" rx="5.1456" ry="5.14559" fill="white"/>
<ellipse cx="386.854" cy="308.267" rx="5.14558" ry="5.14559" fill="white"/>
<ellipse cx="5.14558" cy="319.494" rx="5.14558" ry="5.14559" fill="white"/>
<ellipse cx="16.3723" cy="319.494" rx="5.14558" ry="5.14559" fill="white"/>
<ellipse cx="27.5991" cy="319.494" rx="5.14559" ry="5.14559" fill="white"/>
<ellipse cx="38.8258" cy="319.494" rx="5.14558" ry="5.14559" fill="white"/>
<ellipse cx="50.0525" cy="319.494" rx="5.14559" ry="5.14559" fill="white"/>
<ellipse cx="61.2793" cy="319.494" rx="5.14558" ry="5.14559" fill="white"/>
<ellipse cx="72.5059" cy="319.494" rx="5.14558" ry="5.14559" fill="white"/>
<ellipse cx="83.7327" cy="319.494" rx="5.14558" ry="5.14559" fill="white"/>
<ellipse cx="94.9594" cy="319.494" rx="5.14558" ry="5.14559" fill="white"/>
<ellipse cx="106.186" cy="319.494" rx="5.14558" ry="5.14559" fill="white"/>
<ellipse cx="117.413" cy="319.494" rx="5.14558" ry="5.14559" fill="white"/>
<ellipse cx="128.64" cy="319.494" rx="5.14559" ry="5.14559" fill="white"/>
<ellipse cx="139.866" cy="319.494" rx="5.14558" ry="5.14559" fill="white"/>
<ellipse cx="151.093" cy="319.494" rx="5.14558" ry="5.14559" fill="white"/>
<ellipse cx="162.32" cy="319.494" rx="5.14558" ry="5.14559" fill="white"/>
<ellipse cx="173.547" cy="319.494" rx="5.14558" ry="5.14559" fill="white"/>
<ellipse cx="184.773" cy="319.494" rx="5.14558" ry="5.14559" fill="white"/>
<ellipse cx="196" cy="319.494" rx="5.14558" ry="5.14559" fill="white"/>
<ellipse cx="207.227" cy="319.494" rx="5.14558" ry="5.14559" fill="white"/>
<ellipse cx="218.453" cy="319.494" rx="5.14558" ry="5.14559" fill="white"/>
<ellipse cx="229.68" cy="319.494" rx="5.14558" ry="5.14559" fill="white"/>
<ellipse cx="240.907" cy="319.494" rx="5.14558" ry="5.14559" fill="white"/>
<ellipse cx="252.134" cy="319.494" rx="5.14559" ry="5.14559" fill="white"/>
<ellipse cx="263.36" cy="319.494" rx="5.14558" ry="5.14559" fill="white"/>
<ellipse cx="274.587" cy="319.494" rx="5.14558" ry="5.14559" fill="white"/>
<ellipse cx="285.814" cy="319.494" rx="5.14558" ry="5.14559" fill="white"/>
<ellipse cx="297.041" cy="319.494" rx="5.14558" ry="5.14559" fill="white"/>
<ellipse cx="308.267" cy="319.494" rx="5.14558" ry="5.14559" fill="white"/>
<ellipse cx="319.494" cy="319.494" rx="5.14558" ry="5.14559" fill="white"/>
<ellipse cx="330.721" cy="319.494" rx="5.14558" ry="5.14559" fill="white"/>
<ellipse cx="341.948" cy="319.494" rx="5.14558" ry="5.14559" fill="white"/>
<ellipse cx="353.174" cy="319.494" rx="5.14558" ry="5.14559" fill="white"/>
<ellipse cx="364.401" cy="319.494" rx="5.14558" ry="5.14559" fill="white"/>
<ellipse cx="375.628" cy="319.494" rx="5.1456" ry="5.14559" fill="white"/>
<ellipse cx="386.854" cy="319.494" rx="5.14558" ry="5.14559" fill="white"/>
<ellipse cx="5.14558" cy="330.721" rx="5.14558" ry="5.14559" fill="white"/>
<ellipse cx="16.3723" cy="330.721" rx="5.14558" ry="5.14559" fill="white"/>
<ellipse cx="27.5991" cy="330.721" rx="5.14559" ry="5.14559" fill="white"/>
<ellipse cx="38.8258" cy="330.721" rx="5.14558" ry="5.14559" fill="white"/>
<ellipse cx="50.0525" cy="330.721" rx="5.14559" ry="5.14559" fill="white"/>
<ellipse cx="61.2793" cy="330.721" rx="5.14558" ry="5.14559" fill="white"/>
<ellipse cx="72.5059" cy="330.721" rx="5.14558" ry="5.14559" fill="white"/>
<ellipse cx="83.7327" cy="330.721" rx="5.14558" ry="5.14559" fill="white"/>
<ellipse cx="94.9594" cy="330.721" rx="5.14558" ry="5.14559" fill="white"/>
<ellipse cx="106.186" cy="330.721" rx="5.14558" ry="5.14559" fill="white"/>
<ellipse cx="117.413" cy="330.721" rx="5.14558" ry="5.14559" fill="white"/>
<ellipse cx="128.64" cy="330.721" rx="5.14559" ry="5.14559" fill="white"/>
<ellipse cx="139.866" cy="330.721" rx="5.14558" ry="5.14559" fill="white"/>
<ellipse cx="151.093" cy="330.721" rx="5.14558" ry="5.14559" fill="white"/>
<ellipse cx="162.32" cy="330.721" rx="5.14558" ry="5.14559" fill="white"/>
<ellipse cx="173.547" cy="330.721" rx="5.14558" ry="5.14559" fill="white"/>
<ellipse cx="184.773" cy="330.721" rx="5.14558" ry="5.14559" fill="white"/>
<ellipse cx="196" cy="330.721" rx="5.14558" ry="5.14559" fill="white"/>
<ellipse cx="207.227" cy="330.721" rx="5.14558" ry="5.14559" fill="white"/>
<ellipse cx="218.453" cy="330.721" rx="5.14558" ry="5.14559" fill="white"/>
<ellipse cx="229.68" cy="330.721" rx="5.14558" ry="5.14559" fill="white"/>
<ellipse cx="240.907" cy="330.721" rx="5.14558" ry="5.14559" fill="white"/>
<ellipse cx="252.134" cy="330.721" rx="5.14559" ry="5.14559" fill="white"/>
<ellipse cx="263.36" cy="330.721" rx="5.14558" ry="5.14559" fill="white"/>
<ellipse cx="274.587" cy="330.721" rx="5.14558" ry="5.14559" fill="white"/>
<ellipse cx="285.814" cy="330.721" rx="5.14558" ry="5.14559" fill="white"/>
<ellipse cx="297.041" cy="330.721" rx="5.14558" ry="5.14559" fill="white"/>
<ellipse cx="308.267" cy="330.721" rx="5.14558" ry="5.14559" fill="white"/>
<ellipse cx="319.494" cy="330.721" rx="5.14558" ry="5.14559" fill="white"/>
<ellipse cx="330.721" cy="330.721" rx="5.14558" ry="5.14559" fill="white"/>
<ellipse cx="341.948" cy="330.721" rx="5.14558" ry="5.14559" fill="white"/>
<ellipse cx="353.174" cy="330.721" rx="5.14558" ry="5.14559" fill="white"/>
<ellipse cx="364.401" cy="330.721" rx="5.14558" ry="5.14559" fill="white"/>
<ellipse cx="375.628" cy="330.721" rx="5.1456" ry="5.14559" fill="white"/>
<ellipse cx="386.854" cy="330.721" rx="5.14558" ry="5.14559" fill="white"/>
<ellipse cx="5.14558" cy="341.948" rx="5.14558" ry="5.14559" fill="white"/>
<ellipse cx="16.3723" cy="341.948" rx="5.14558" ry="5.14559" fill="white"/>
<ellipse cx="27.5991" cy="341.948" rx="5.14559" ry="5.14559" fill="white"/>
<ellipse cx="38.8258" cy="341.948" rx="5.14558" ry="5.14559" fill="white"/>
<ellipse cx="50.0525" cy="341.948" rx="5.14559" ry="5.14559" fill="white"/>
<ellipse cx="61.2793" cy="341.948" rx="5.14558" ry="5.14559" fill="white"/>
<ellipse cx="72.5059" cy="341.948" rx="5.14558" ry="5.14559" fill="white"/>
<ellipse cx="83.7327" cy="341.948" rx="5.14558" ry="5.14559" fill="white"/>
<ellipse cx="94.9594" cy="341.948" rx="5.14558" ry="5.14559" fill="white"/>
<ellipse cx="106.186" cy="341.948" rx="5.14558" ry="5.14559" fill="white"/>
<ellipse cx="117.413" cy="341.948" rx="5.14558" ry="5.14559" fill="white"/>
<ellipse cx="128.64" cy="341.948" rx="5.14559" ry="5.14559" fill="white"/>
<ellipse cx="139.866" cy="341.948" rx="5.14558" ry="5.14559" fill="white"/>
<ellipse cx="151.093" cy="341.948" rx="5.14558" ry="5.14559" fill="white"/>
<ellipse cx="162.32" cy="341.948" rx="5.14558" ry="5.14559" fill="white"/>
<ellipse cx="173.547" cy="341.948" rx="5.14558" ry="5.14559" fill="white"/>
<ellipse cx="184.773" cy="341.948" rx="5.14558" ry="5.14559" fill="white"/>
<ellipse cx="196" cy="341.948" rx="5.14558" ry="5.14559" fill="white"/>
<ellipse cx="207.227" cy="341.948" rx="5.14558" ry="5.14559" fill="white"/>
<ellipse cx="218.453" cy="341.948" rx="5.14558" ry="5.14559" fill="white"/>
<ellipse cx="229.68" cy="341.948" rx="5.14558" ry="5.14559" fill="white"/>
<ellipse cx="240.907" cy="341.948" rx="5.14558" ry="5.14559" fill="white"/>
<ellipse cx="252.134" cy="341.948" rx="5.14559" ry="5.14559" fill="white"/>
<ellipse cx="263.36" cy="341.948" rx="5.14558" ry="5.14559" fill="white"/>
<ellipse cx="274.587" cy="341.948" rx="5.14558" ry="5.14559" fill="white"/>
<ellipse cx="285.814" cy="341.948" rx="5.14558" ry="5.14559" fill="white"/>
<ellipse cx="297.041" cy="341.948" rx="5.14558" ry="5.14559" fill="white"/>
<ellipse cx="308.267" cy="341.948" rx="5.14558" ry="5.14559" fill="white"/>
<ellipse cx="319.494" cy="341.948" rx="5.14558" ry="5.14559" fill="white"/>
<ellipse cx="330.721" cy="341.948" rx="5.14558" ry="5.14559" fill="white"/>
<ellipse cx="341.948" cy="341.948" rx="5.14558" ry="5.14559" fill="white"/>
<ellipse cx="353.174" cy="341.948" rx="5.14558" ry="5.14559" fill="white"/>
<ellipse cx="364.401" cy="341.948" rx="5.14558" ry="5.14559" fill="white"/>
<ellipse cx="375.628" cy="341.948" rx="5.1456" ry="5.14559" fill="white"/>
<ellipse cx="386.854" cy="341.948" rx="5.14558" ry="5.14559" fill="white"/>
<ellipse cx="5.14558" cy="353.174" rx="5.14558" ry="5.14559" fill="white"/>
<ellipse cx="16.3723" cy="353.174" rx="5.14558" ry="5.14559" fill="white"/>
<ellipse cx="27.5991" cy="353.174" rx="5.14559" ry="5.14559" fill="white"/>
<ellipse cx="38.8258" cy="353.174" rx="5.14558" ry="5.14559" fill="white"/>
<ellipse cx="50.0525" cy="353.174" rx="5.14559" ry="5.14559" fill="white"/>
<ellipse cx="61.2793" cy="353.174" rx="5.14558" ry="5.14559" fill="white"/>
<ellipse cx="72.5059" cy="353.174" rx="5.14558" ry="5.14559" fill="white"/>
<ellipse cx="83.7327" cy="353.174" rx="5.14558" ry="5.14559" fill="white"/>
<ellipse cx="94.9594" cy="353.174" rx="5.14558" ry="5.14559" fill="white"/>
<ellipse cx="106.186" cy="353.174" rx="5.14558" ry="5.14559" fill="white"/>
<ellipse cx="117.413" cy="353.174" rx="5.14558" ry="5.14559" fill="white"/>
<ellipse cx="128.64" cy="353.174" rx="5.14559" ry="5.14559" fill="white"/>
<ellipse cx="139.866" cy="353.174" rx="5.14558" ry="5.14559" fill="white"/>
<ellipse cx="151.093" cy="353.174" rx="5.14558" ry="5.14559" fill="white"/>
<ellipse cx="162.32" cy="353.174" rx="5.14558" ry="5.14559" fill="white"/>
<ellipse cx="173.547" cy="353.174" rx="5.14558" ry="5.14559" fill="white"/>
<ellipse cx="184.773" cy="353.174" rx="5.14558" ry="5.14559" fill="white"/>
<ellipse cx="196" cy="353.174" rx="5.14558" ry="5.14559" fill="white"/>
<ellipse cx="207.227" cy="353.174" rx="5.14558" ry="5.14559" fill="white"/>
<ellipse cx="218.453" cy="353.174" rx="5.14558" ry="5.14559" fill="white"/>
<ellipse cx="229.68" cy="353.174" rx="5.14558" ry="5.14559" fill="white"/>
<ellipse cx="240.907" cy="353.174" rx="5.14558" ry="5.14559" fill="white"/>
<ellipse cx="252.134" cy="353.174" rx="5.14559" ry="5.14559" fill="white"/>
<ellipse cx="263.36" cy="353.174" rx="5.14558" ry="5.14559" fill="white"/>
<ellipse cx="274.587" cy="353.174" rx="5.14558" ry="5.14559" fill="white"/>
<ellipse cx="285.814" cy="353.174" rx="5.14558" ry="5.14559" fill="white"/>
<ellipse cx="297.041" cy="353.174" rx="5.14558" ry="5.14559" fill="white"/>
<ellipse cx="308.267" cy="353.174" rx="5.14558" ry="5.14559" fill="white"/>
<ellipse cx="319.494" cy="353.174" rx="5.14558" ry="5.14559" fill="white"/>
<ellipse cx="330.721" cy="353.174" rx="5.14558" ry="5.14559" fill="white"/>
<ellipse cx="341.948" cy="353.174" rx="5.14558" ry="5.14559" fill="white"/>
<ellipse cx="353.174" cy="353.174" rx="5.14558" ry="5.14559" fill="white"/>
<ellipse cx="364.401" cy="353.174" rx="5.14558" ry="5.14559" fill="white"/>
<ellipse cx="375.628" cy="353.174" rx="5.1456" ry="5.14559" fill="white"/>
<ellipse cx="386.854" cy="353.174" rx="5.14558" ry="5.14559" fill="white"/>
<ellipse cx="5.14558" cy="364.401" rx="5.14558" ry="5.14559" fill="white"/>
<ellipse cx="16.3723" cy="364.401" rx="5.14558" ry="5.14559" fill="white"/>
<ellipse cx="27.5991" cy="364.401" rx="5.14559" ry="5.14559" fill="white"/>
<ellipse cx="38.8258" cy="364.401" rx="5.14558" ry="5.14559" fill="white"/>
<ellipse cx="50.0525" cy="364.401" rx="5.14559" ry="5.14559" fill="white"/>
<ellipse cx="61.2793" cy="364.401" rx="5.14558" ry="5.14559" fill="white"/>
<ellipse cx="72.5059" cy="364.401" rx="5.14558" ry="5.14559" fill="white"/>
<ellipse cx="83.7327" cy="364.401" rx="5.14558" ry="5.14559" fill="white"/>
<ellipse cx="94.9594" cy="364.401" rx="5.14558" ry="5.14559" fill="white"/>
<ellipse cx="106.186" cy="364.401" rx="5.14558" ry="5.14559" fill="white"/>
<ellipse cx="117.413" cy="364.401" rx="5.14558" ry="5.14559" fill="white"/>
<ellipse cx="128.64" cy="364.401" rx="5.14559" ry="5.14559" fill="white"/>
<ellipse cx="139.866" cy="364.401" rx="5.14558" ry="5.14559" fill="white"/>
<ellipse cx="151.093" cy="364.401" rx="5.14558" ry="5.14559" fill="white"/>
<ellipse cx="162.32" cy="364.401" rx="5.14558" ry="5.14559" fill="white"/>
<ellipse cx="173.547" cy="364.401" rx="5.14558" ry="5.14559" fill="white"/>
<ellipse cx="184.773" cy="364.401" rx="5.14558" ry="5.14559" fill="white"/>
<ellipse cx="196" cy="364.401" rx="5.14558" ry="5.14559" fill="white"/>
<ellipse cx="207.227" cy="364.401" rx="5.14558" ry="5.14559" fill="white"/>
<ellipse cx="218.453" cy="364.401" rx="5.14558" ry="5.14559" fill="white"/>
<ellipse cx="229.68" cy="364.401" rx="5.14558" ry="5.14559" fill="white"/>
<ellipse cx="240.907" cy="364.401" rx="5.14558" ry="5.14559" fill="white"/>
<ellipse cx="252.134" cy="364.401" rx="5.14559" ry="5.14559" fill="white"/>
<ellipse cx="263.36" cy="364.401" rx="5.14558" ry="5.14559" fill="white"/>
<ellipse cx="274.587" cy="364.401" rx="5.14558" ry="5.14559" fill="white"/>
<ellipse cx="285.814" cy="364.401" rx="5.14558" ry="5.14559" fill="white"/>
<ellipse cx="297.041" cy="364.401" rx="5.14558" ry="5.14559" fill="white"/>
<ellipse cx="308.267" cy="364.401" rx="5.14558" ry="5.14559" fill="white"/>
<ellipse cx="319.494" cy="364.401" rx="5.14558" ry="5.14559" fill="white"/>
<ellipse cx="330.721" cy="364.401" rx="5.14558" ry="5.14559" fill="white"/>
<ellipse cx="341.948" cy="364.401" rx="5.14558" ry="5.14559" fill="white"/>
<ellipse cx="353.174" cy="364.401" rx="5.14558" ry="5.14559" fill="white"/>
<ellipse cx="364.401" cy="364.401" rx="5.14558" ry="5.14559" fill="white"/>
<ellipse cx="375.628" cy="364.401" rx="5.1456" ry="5.14559" fill="white"/>
<ellipse cx="386.854" cy="364.401" rx="5.14558" ry="5.14559" fill="white"/>
<ellipse cx="5.14558" cy="375.628" rx="5.14558" ry="5.14559" fill="white"/>
<ellipse cx="16.3723" cy="375.628" rx="5.14558" ry="5.14559" fill="white"/>
<ellipse cx="27.5991" cy="375.628" rx="5.14559" ry="5.14559" fill="white"/>
<ellipse cx="38.8258" cy="375.628" rx="5.14558" ry="5.14559" fill="white"/>
<ellipse cx="50.0525" cy="375.628" rx="5.14559" ry="5.14559" fill="white"/>
<ellipse cx="61.2793" cy="375.628" rx="5.14558" ry="5.14559" fill="white"/>
<ellipse cx="72.5059" cy="375.628" rx="5.14558" ry="5.14559" fill="white"/>
<ellipse cx="83.7327" cy="375.628" rx="5.14558" ry="5.14559" fill="white"/>
<ellipse cx="94.9594" cy="375.628" rx="5.14558" ry="5.14559" fill="white"/>
<ellipse cx="106.186" cy="375.628" rx="5.14558" ry="5.14559" fill="white"/>
<ellipse cx="117.413" cy="375.628" rx="5.14558" ry="5.14559" fill="white"/>
<ellipse cx="128.64" cy="375.628" rx="5.14559" ry="5.14559" fill="white"/>
<ellipse cx="139.866" cy="375.628" rx="5.14558" ry="5.14559" fill="white"/>
<ellipse cx="151.093" cy="375.628" rx="5.14558" ry="5.14559" fill="white"/>
<ellipse cx="162.32" cy="375.628" rx="5.14558" ry="5.14559" fill="white"/>
<ellipse cx="173.547" cy="375.628" rx="5.14558" ry="5.14559" fill="white"/>
<ellipse cx="184.773" cy="375.628" rx="5.14558" ry="5.14559" fill="white"/>
<ellipse cx="196" cy="375.628" rx="5.14558" ry="5.14559" fill="white"/>
<ellipse cx="207.227" cy="375.628" rx="5.14558" ry="5.14559" fill="white"/>
<ellipse cx="218.453" cy="375.628" rx="5.14558" ry="5.14559" fill="white"/>
<ellipse cx="229.68" cy="375.628" rx="5.14558" ry="5.14559" fill="white"/>
<ellipse cx="240.907" cy="375.628" rx="5.14558" ry="5.14559" fill="white"/>
<ellipse cx="252.134" cy="375.628" rx="5.14559" ry="5.14559" fill="white"/>
<ellipse cx="263.36" cy="375.628" rx="5.14558" ry="5.14559" fill="white"/>
<ellipse cx="274.587" cy="375.628" rx="5.14558" ry="5.14559" fill="white"/>
<ellipse cx="285.814" cy="375.628" rx="5.14558" ry="5.14559" fill="white"/>
<ellipse cx="297.041" cy="375.628" rx="5.14558" ry="5.14559" fill="white"/>
<ellipse cx="308.267" cy="375.628" rx="5.14558" ry="5.14559" fill="white"/>
<ellipse cx="319.494" cy="375.628" rx="5.14558" ry="5.14559" fill="white"/>
<ellipse cx="330.721" cy="375.628" rx="5.14558" ry="5.14559" fill="white"/>
<ellipse cx="341.948" cy="375.628" rx="5.14558" ry="5.14559" fill="white"/>
<ellipse cx="353.174" cy="375.628" rx="5.14558" ry="5.14559" fill="white"/>
<ellipse cx="364.401" cy="375.628" rx="5.14558" ry="5.14559" fill="white"/>
<ellipse cx="375.628" cy="375.628" rx="5.1456" ry="5.14559" fill="white"/>
<ellipse cx="386.854" cy="375.628" rx="5.14558" ry="5.14559" fill="white"/>
<ellipse cx="5.14558" cy="386.854" rx="5.14558" ry="5.14559" fill="white"/>
<ellipse cx="16.3723" cy="386.854" rx="5.14558" ry="5.14559" fill="white"/>
<ellipse cx="27.5991" cy="386.854" rx="5.14559" ry="5.14559" fill="white"/>
<ellipse cx="38.8258" cy="386.854" rx="5.14558" ry="5.14559" fill="white"/>
<ellipse cx="50.0525" cy="386.854" rx="5.14559" ry="5.14559" fill="white"/>
<ellipse cx="61.2793" cy="386.854" rx="5.14558" ry="5.14559" fill="white"/>
<ellipse cx="72.5059" cy="386.854" rx="5.14558" ry="5.14559" fill="white"/>
<ellipse cx="83.7327" cy="386.854" rx="5.14558" ry="5.14559" fill="white"/>
<ellipse cx="94.9594" cy="386.854" rx="5.14558" ry="5.14559" fill="white"/>
<ellipse cx="106.186" cy="386.854" rx="5.14558" ry="5.14559" fill="white"/>
<ellipse cx="117.413" cy="386.854" rx="5.14558" ry="5.14559" fill="white"/>
<ellipse cx="128.64" cy="386.854" rx="5.14559" ry="5.14559" fill="white"/>
<ellipse cx="139.866" cy="386.854" rx="5.14558" ry="5.14559" fill="white"/>
<ellipse cx="151.093" cy="386.854" rx="5.14558" ry="5.14559" fill="white"/>
<ellipse cx="162.32" cy="386.854" rx="5.14558" ry="5.14559" fill="white"/>
<ellipse cx="173.547" cy="386.854" rx="5.14558" ry="5.14559" fill="white"/>
<ellipse cx="184.773" cy="386.854" rx="5.14558" ry="5.14559" fill="white"/>
<ellipse cx="196" cy="386.854" rx="5.14558" ry="5.14559" fill="white"/>
<ellipse cx="207.227" cy="386.854" rx="5.14558" ry="5.14559" fill="white"/>
<ellipse cx="218.453" cy="386.854" rx="5.14558" ry="5.14559" fill="white"/>
<ellipse cx="229.68" cy="386.854" rx="5.14558" ry="5.14559" fill="white"/>
<ellipse cx="240.907" cy="386.854" rx="5.14558" ry="5.14559" fill="white"/>
<ellipse cx="252.134" cy="386.854" rx="5.14559" ry="5.14559" fill="white"/>
<ellipse cx="263.36" cy="386.854" rx="5.14558" ry="5.14559" fill="white"/>
<ellipse cx="274.587" cy="386.854" rx="5.14558" ry="5.14559" fill="white"/>
<ellipse cx="285.814" cy="386.854" rx="5.14558" ry="5.14559" fill="white"/>
<ellipse cx="297.041" cy="386.854" rx="5.14558" ry="5.14559" fill="white"/>
<ellipse cx="308.267" cy="386.854" rx="5.14558" ry="5.14559" fill="white"/>
<ellipse cx="319.494" cy="386.854" rx="5.14558" ry="5.14559" fill="white"/>
<ellipse cx="330.721" cy="386.854" rx="5.14558" ry="5.14559" fill="white"/>
<ellipse cx="341.948" cy="386.854" rx="5.14558" ry="5.14559" fill="white"/>
<ellipse cx="353.174" cy="386.854" rx="5.14558" ry="5.14559" fill="white"/>
<ellipse cx="364.401" cy="386.854" rx="5.14558" ry="5.14559" fill="white"/>
<ellipse cx="375.628" cy="386.854" rx="5.1456" ry="5.14559" fill="white"/>
<ellipse cx="386.854" cy="386.854" rx="5.14558" ry="5.14559" fill="white"/>
</g>
</mask>
<g mask="url(#mask0)">
<path fill-rule="evenodd" clip-rule="evenodd" d="M196 392C304.248 392 392 304.248 392 196C392 87.7522 304.248 0 196 0C87.7522 0 0 87.7522 0 196C0 304.248 87.7522 392 196 392ZM106.6 275.2C113.8 283.6 124.2 287.8 137.8 287.8C149.267 287.8 158.6 284.333 165.8 277.4C173 270.467 176.6 261.067 176.6 249.2C176.6 239.867 174.467 231.533 170.2 224.2C166.067 216.867 160.467 210.067 153.4 203.8L126 179.8C122.133 176.467 119.4 173.2 117.8 170C116.2 166.667 115.4 162.6 115.4 157.8C115.4 151.933 116.933 147.533 120 144.6C123.067 141.533 127.467 140 133.2 140C140.933 140 146.267 142.6 149.2 147.8C152.267 152.867 154.133 160.133 154.8 169.6L174 164.4C172.667 150.133 168.733 139.6 162.2 132.8C155.667 126 146 122.6 133.2 122.6C121.467 122.6 112.2 125.867 105.4 132.4C98.6 138.933 95.2 148.133 95.2 160C95.2 168 96.4 174.8 98.8 180.4C101.333 185.867 105.333 191 110.8 195.8L138 219.8C144.133 225.133 148.6 230 151.4 234.4C154.2 238.8 155.6 244.333 155.6 251C155.6 257.133 154.067 261.867 151 265.2C148.067 268.4 143.667 270 137.8 270C129.933 270 124.267 266.8 120.8 260.4C117.467 254 115.467 245.6 114.8 235.2L94.8 240.6C95.6 255.267 99.5333 266.8 106.6 275.2ZM256.731 124H194.131V286H216.731V210.2H247.731V194.2H216.731V140.2H256.731V124ZM304.856 124H272.256V286H294.856V210H312.456L333.656 286H355.456L332.456 204.8C345.79 200.4 352.456 187.8 352.456 167C352.456 151.8 348.59 140.867 340.856 134.2C333.256 127.4 321.256 124 304.856 124ZM324.256 188C320.123 191.867 313.19 193.8 303.456 193.8H294.856V140.2H304.856C311.656 140.2 316.923 141.133 320.656 143C324.39 144.733 326.99 147.533 328.456 151.4C329.923 155.133 330.656 160.333 330.656 167C330.656 177.133 328.523 184.133 324.256 188Z" fill="white"/>
</g>
<path d="M404.6 124H467.4V140.8H427.2V194.4H459.8V210.4H427.2V269.8H467.8V286H404.6V124ZM486.045 124H508.645V269.8H550.045V286H486.045V124ZM565.538 124H628.338V140.8H588.138V194.4H620.738V210.4H588.138V269.8H628.738V286H565.538V124ZM687.583 287.8C671.583 287.8 660.316 283.067 653.783 273.6C647.249 264 643.983 250.8 643.983 234V176.8C643.983 159.067 647.183 145.6 653.583 136.4C659.983 127.2 671.316 122.6 687.583 122.6C702.116 122.6 712.516 126.533 718.783 134.4C725.183 142.267 728.383 153.867 728.383 169.2V182H706.983V170.6C706.983 163.133 706.649 157.4 705.983 153.4C705.316 149.4 703.583 146.2 700.783 143.8C698.116 141.4 693.783 140.2 687.783 140.2C681.649 140.2 677.049 141.533 673.983 144.2C671.049 146.733 669.116 150.333 668.183 155C667.249 159.533 666.783 165.667 666.783 173.4V237.6C666.783 245.867 667.449 252.333 668.783 257C670.116 261.667 672.249 265 675.183 267C678.249 269 682.449 270 687.783 270C693.516 270 697.783 268.733 700.583 266.2C703.383 263.667 705.116 260.2 705.783 255.8C706.583 251.4 706.983 245.4 706.983 237.8V225.8H728.383V237.8C728.383 253.933 725.316 266.333 719.183 275C713.183 283.533 702.649 287.8 687.583 287.8ZM767.713 140.8H740.313V124H816.913V140.8H790.313V286H767.713V140.8ZM832.53 124H865.13C881.53 124 893.53 127.4 901.13 134.2C908.863 140.867 912.73 151.8 912.73 167C912.73 187.8 906.063 200.4 892.73 204.8L915.73 286H893.93L872.73 210H855.13V286H832.53V124ZM863.73 193.8C873.463 193.8 880.396 191.867 884.53 188C888.796 184.133 890.93 177.133 890.93 167C890.93 160.333 890.196 155.133 888.73 151.4C887.263 147.533 884.663 144.733 880.93 143C877.196 141.133 871.93 140.2 865.13 140.2H855.13V193.8H863.73ZM937.441 124H959.641V286H937.441V124ZM1026.45 287.8C1010.45 287.8 999.183 283.067 992.65 273.6C986.117 264 982.85 250.8 982.85 234V176.8C982.85 159.067 986.05 145.6 992.45 136.4C998.85 127.2 1010.18 122.6 1026.45 122.6C1040.98 122.6 1051.38 126.533 1057.65 134.4C1064.05 142.267 1067.25 153.867 1067.25 169.2V182H1045.85V170.6C1045.85 163.133 1045.52 157.4 1044.85 153.4C1044.18 149.4 1042.45 146.2 1039.65 143.8C1036.98 141.4 1032.65 140.2 1026.65 140.2C1020.52 140.2 1015.92 141.533 1012.85 144.2C1009.92 146.733 1007.98 150.333 1007.05 155C1006.12 159.533 1005.65 165.667 1005.65 173.4V237.6C1005.65 245.867 1006.32 252.333 1007.65 257C1008.98 261.667 1011.12 265 1014.05 267C1017.12 269 1021.32 270 1026.65 270C1032.38 270 1036.65 268.733 1039.45 266.2C1042.25 263.667 1043.98 260.2 1044.65 255.8C1045.45 251.4 1045.85 245.4 1045.85 237.8V225.8H1067.25V237.8C1067.25 253.933 1064.18 266.333 1058.05 275C1052.05 283.533 1041.52 287.8 1026.45 287.8ZM1114.38 124H1136.18L1170.78 286H1149.38L1141.98 245.2H1108.98L1101.18 286H1079.98L1114.38 124ZM1138.98 229L1125.38 156L1111.98 229H1138.98ZM1187.22 124H1209.82V269.8H1251.22V286H1187.22V124Z" fill="white"/>
</svg>
